<svg version="1.1" viewBox="0 0 1812.4 283.43" xmlns="http://www.w3.org/2000/svg">
 <path d="m.035678 282.08c.39291-.6875 39.87-63.035 87.726-138.55 58.594-92.46 88.019-138.02 90.095-139.5 2.722-1.9417 4.6044-2.2383 16.08-2.5335 14.555-.37447 18.852.48857 22.715 4.562 1.446 1.5248 41.418 63.972 88.827 138.77 47.409 74.8 86.65 136.56 87.202 137.25.79839.99444-5.0329 1.25-28.522 1.25h-29.525l-68.248-107.75c-37.537-59.262-68.743-108.3-69.347-108.96-.82587-.91274-8.0579 9.7452-29.099 42.883-15.4 24.254-28.148 44.484-28.33 44.956s24.011.97439 53.761 1.1166l54.091.25865-28.556 45-109.21.51696-51.752 81.921-29.309.0312c-23.169.0246-29.159-.23077-28.595-1.2189zm411.4-139.77v-141.02l247.5.5455 8.5 2.8373c36.123 12.058 58.917 42.956 58.983 79.955.0692 39.024-25.192 71.579-63.483 81.814-6.5917 1.762-11.793 2.2255-29.546 2.6331l-21.546.49468 11.546 11.208c6.3504 6.1644 33.023 31.762 59.272 56.883l47.726 45.675h-69.515l-167.74-160.5 158.8-1 5.6965-2.6702c7.2668-3.4062 14.227-10.367 17.633-17.633 2.3624-5.0398 2.6702-6.907 2.6702-16.196 0-9.2552-.31242-11.166-2.6352-16.12-3.5675-7.6084-8.5968-12.914-16.096-16.981l-6.2683-3.3991-187.5-.54945v235.05h-54zm369 .0228v-141h53v282h-53zm109.62 139.75c.4046-.6875 7.2236-11.479 15.153-23.982l14.418-22.732 202.31-.53699 5.2844-2.7842c6.8705-3.62 12.875-9.8468 16.118-16.716 2.2576-4.7808 2.5972-6.8104 2.5972-15.521 0-9.3111-.2332-10.495-3.292-16.708-3.6179-7.3491-9.0525-12.762-16.208-16.144-4.446-2.1013-5.5078-2.1337-88.5-2.7018-81.825-.56005-84.213-.63071-92.226-2.7291-16.513-4.3244-28.358-11.284-39.91-23.447-8.7741-9.2391-14.252-18.324-18.542-30.749-3.157-9.1437-3.28-10.081-3.28-25s.123-15.856 3.28-25c9.7248-28.166 31.557-47.873 60.352-54.478 5.8161-1.334 21.001-1.4982 118.06-1.2766l111.39.25434-29.199 46-191.92 1-4.9203 2.2691c-7.5048 3.461-12.86 8.4144-16.646 15.397-3.2608 6.0144-3.434 6.8382-3.434 16.334 0 9.1879.23794 10.429 2.9298 15.288 3.7253 6.7243 10.155 12.657 17.395 16.051l5.6751 2.6604 171 1 9.342 3.2618c26.811 9.3612 44.58 27.844 52.809 54.931 2.354 7.7487 2.6828 10.551 2.7346 23.307.071 17.5-1.3379 23.898-8.5722 38.923-4.453 9.2488-6.1057 11.514-14.666 20.105-13.326 13.373-26.31 20.296-44.148 23.538-10.598 1.9265-236.51 2.1023-235.38.18315zm435.38-116.25v-117.5h-63c-34.65 0-63-.23907-63-.53126 0-.2922 6.5727-10.867 14.606-23.5l14.606-22.969 34.644-.00058c19.054-.00032 77.506-.29953 129.89-.66493l95.25-.66435v48.33h-109v235h-54zm93.001 117.25c6e-4-.1375 39.521-62.575 87.822-138.75 77.962-122.95 88.262-138.75 91.749-140.73 3.5162-1.9996 5.3206-2.2353 17.227-2.25 14.422-.0178 16.676.58001 21.284 5.6443 2.1543 2.3679 35.027 54.002 165.59 260.09l10.295 16.25h-58.696l-68.264-107.75c-37.545-59.262-68.768-108.29-69.384-108.95-.8463-.90747-7.9734 9.601-29.12 42.936-15.4 24.276-28.149 44.5-28.33 44.943-.1818.44269 24.02.92128 53.782 1.0635l54.113.25865-28.565 45.423-109.14.077-51.862 81.954-29.25.0229c-16.088.0126-29.25-.0896-29.249-.22708z" style="fill:#1a3767"/>
</svg>
