<svg version="1.1" viewBox="0 0 1449.3 1518.3" xmlns="http://www.w3.org/2000/svg">
 <path d="m521.46 1516.8c-62.364-10.977-107.52-64.465-107.5-127.34 0.012-33.643 12.196-64.306 35.219-88.628 19.67-20.78 44.666-34.141 73.054-39.05 13.087-2.2632 34.85-1.5273 48.038 1.6244l9.8146 2.3455 147.64-147.63-7.3442-11.264c-58.406-89.577-78.093-198.49-54.763-302.98 9.963-44.62 28.283-88.154 54.384-129.23 1.232-1.9391 1.2239-2.4192-0.061-3.6381-3.7412-3.5485-485.26-377.63-486.08-377.63-0.5152 0-4.8652 1.9694-9.6667 4.3763-20.491 10.272-38.054 14.557-62.73 15.306-20.746 0.62957-34.601-1.1664-52.083-6.7515-46.515-14.86-84.563-51.675-100.74-97.471-10.072-28.521-11.4-62.02-3.6455-91.96 15.008-57.943 61.297-101.71 121.32-114.7 8.5962-1.8608 13.282-2.1967 30.648-2.1967s22.052 0.33587 30.648 2.1967c63.278 13.698 109.73 60.109 123.55 123.45 1.8796 8.6121 2.2419 13.363 2.2687 29.749 0.028 16.842-0.2851 20.916-2.294 29.888-1.9243 8.5949-2.097 10.599-1 11.61 0.9386 0.86457 483.71 376.23 493.4 383.64 0.6506 0.49679 4.2063-1.5894 9-5.2806 24.295-18.707 54.944-36.525 84.658-49.217 23.747-10.143 59.104-20.724 84.016-25.143l9.75-1.7296v-180.27l-4.75-2.4914c-22.981-12.054-45.402-34.193-58.238-57.505-11.947-21.699-18.079-49.51-16.626-75.409 3.6616-65.252 48.587-117.47 112.92-131.26 14.662-3.1425 42.715-3.1425 57.377 0 38.025 8.15 68.669 29.039 89.971 61.332 10.717 16.247 17.582 33.893 20.866 53.642 2.5711 15.461 1.6559 43.906-1.8592 57.781-5.8701 23.171-15.882 42.176-31.954 60.654-9.5303 10.957-29.22 26.119-40.471 31.164l-4.2413 1.9019v180.2l16.337 3.2223c135.07 26.641 247.52 122.85 295.24 252.61 16.039 43.613 23.752 87.646 23.762 135.66 0.01 26.351-1.0206 39.689-4.9225 63.977-21.405 133.24-109.81 246.51-234.92 301-23.885 10.402-59.602 21.153-86 25.886-25.703 4.6084-37.779 5.5757-70 5.6069-31.41 0.03-39.108-0.5125-64.5-4.5492-57.369-9.12-118.09-34.205-165.56-68.391l-10.738-7.7341-146.07 146.07 2.3459 9.816c3.1839 13.323 3.8897 34.941 1.5773 48.316-4.4236 25.587-16.035 48.808-33.78 67.554-25.125 26.543-58.15 40.604-94.777 40.352-6.875-0.047-16.1-0.7193-20.5-1.4938zm563.5-425.87c57.879-9.7702 106.48-41.598 138.27-90.539 41.254-63.529 42.965-146.73 4.3667-212.32-29.785-50.609-80.112-85.889-138.11-96.814-14.028-2.6427-46-3.6655-60.246-1.9273-89.977 10.978-160.53 78.002-176.39 167.56-2.972 16.785-3.2346 49.168-0.5269 64.957 5.3766 31.352 15.407 56.707 32.502 82.163 33.107 49.298 86.365 81.582 145.75 88.349 11.384 1.2974 43.179 0.4611 54.385-1.4305z" fill="#f4795b"/>
</svg>
