<svg version="1.1" viewBox="0 0 300 229.67" xmlns="http://www.w3.org/2000/svg">
 <rect x="-22.509" y="-19.732" width="345.02" height="266.81" style="fill:#fff"/>
 <g transform="translate(-20 -20.001)">
  <path d="m106.79 143.35v.431l.277.179v-.426c-.01-.007-.018-.014-.029-.02z" style="fill:#6082c0"/>
  <path d="m106.79 142.98v.431l.277.179v-.426c-.01-.007-.018-.014-.029-.02z" style="fill:#6082c0"/>
  <path d="m308.1 108.44-23.88-.003c10.522 7.855 16.469 16.017 17.682 24.261.965 6.593-1.099 13.256-6.134 19.806l-.203.264c-9.154 11.672-27.839 20.492-35.45 23.742-.86.262-1.724.518-2.597.773h50.582c6.563 0 11.9-5.363 11.9-11.954v-44.937c0-6.591-5.337-11.952-11.9-11.952z" style="fill:#993022"/>
  <path d="m245.49 108.44c-6.56 0-11.897 5.363-11.897 11.953v44.936c0 6.593 5.337 11.956 11.897 11.956h.178l1.359-.451c30.525-10.1 50.106-25.404 51.094-39.943 1.003-14.636-17.19-26.701-19.27-28.028l-.552-.422h-32.809z" style="fill:#993022"/>
  <path d="m298.12 136.89c-.987 14.539-20.568 29.843-51.094 39.943l-1.359.451h-.178c-6.56 0-11.897-5.363-11.897-11.956v-44.936c0-6.59 5.337-11.953 11.897-11.953h32.808l.552.422c2.081 1.328 20.274 13.393 19.271 28.029z" style="fill:#993022"/>
  <path d="m304.71 52.448c.329-1.93.496-3.85.496-5.704 0-9.156-3.99-16.627-11.542-21.604-10.101-6.656-24.603-6.871-34.48-.499-7.663 4.941-11.712 12.911-11.712 23.045 0 2.115.186 4.348.548 6.64 1.734 10.864 7.148 19.913 16.109 26.934-4.554-1.235-10.503-1.825-13.078 2.353-1.268 2.057-.958 4.052.831 5.336 3.312 2.376 11.36 1.747 16.22-1.033l-3.335 7.771h22.393l-4.479-8.961c5.418 2.265 11.699 4.312 15.092 2.243 1.379-.841 2.129-2.21 2.226-4.068.127-2.497-1.011-3.843-1.988-4.531-1.708-1.209-4.501-1.512-8.318-.896.395-.323.773-.646 1.147-.978 5.075-4.522 11.601-12.71 13.87-26.048zm-51.179 34.209c-.323-.231-.72-.522-.075-1.565 1.94-3.162 8.423-1.949 13.694.147-4.055 2.695-11.52 2.927-13.619 1.418zm42.857-3.983c.404.287.86.782.795 2.076-.052.9-.332 1.473-.88 1.809-1.278.782-4.557.936-12.849-2.565 5.059-1.685 10.799-2.823 12.934-1.32zm-16.49-.405c-.339.134-.593.235-.714.284l-.988.342-.473.231.016.029-1.63.675 2.526 1.131 3.957 7.904h-13.54l3.898-9.094-1.418-.844c-11.793-6.998-18.769-16.771-20.724-29.046-.336-2.115-.509-4.185-.509-6.161 0-9.153 3.602-16.314 10.414-20.708 8.977-5.789 22.185-5.59 31.393.482 6.721 4.433 10.271 11.102 10.271 19.29 0 1.669-.153 3.416-.453 5.192-3.632 21.388-18.968 28.98-22.026 30.293z" style="fill:#993022"/>
  <path d="m283.02 107.88-.194-.135c-.003-.003-.036-.02-.088-.052-.802-.466-6.829-4.237-8.126-12.012h-3.042c.157 1.659 1.073 7.65 6.229 12.012.076.065.159.126.239.189h.443l.076.057.288.22 4.084-.003-.394-.276z" style="fill:#993022"/>
  <path d="m278.48 107.89h-.443c.117.093.233.186.351.278h.457l-.288-.22z" style="fill:#993022"/>
  <polygon points="283.42 108.16 283.02 107.88 282.54 107.88 282.93 108.16" style="fill:#993022"/>
  <path d="m167.54 113.65 12.797 3.59-11.444 4.702 8.987 2.519-6.252 5.097v13.745h5.271l1.825-12.865.244-.103c13.677-5.708 14.632-18.803 14.681-21.436v-.463h-20.75l-.391.463z" style="fill:#ecb941"/>
  <path d="m160.1 122.52 11.125-4.554-9.557-2.914 6.715-6.154.447-.459h-22.139v.459c.153 2.759.596 16.403 14.293 21.533l.264.097.036.278 1.584 12.497h5.783v-15.094l3.064-2.519z" style="fill:#ecb941"/>
  <rect x="168.7" y="56.817" width="2.823" height="24.219" style="fill:#ecb941"/>
  <rect transform="matrix(.4472 -.8945 .8945 .4472 -8.6138 171.78)" x="133.25" y="81.824" width="2.822" height="22.072" style="fill:#ecb941"/>
  <rect transform="matrix(.6641 -.7476 .7476 .6641 -13.218 133.73)" x="140.81" y="69.723" width="2.823" height="23.702" style="fill:#ecb941"/>
  <polygon points="151.37 61.209 148.78 62.33 157.95 83.55 158.14 83.98 160.73 82.859 151.56 61.636" style="fill:#ecb941"/>
  <rect transform="matrix(.8944 -.4472 .4472 .8944 -19.826 101.73)" x="194.54" y="91.449" width="22.072" height="2.822" style="fill:#ecb941"/>
  <rect transform="matrix(.7476 -.6642 .6642 .7476 -4.196 152.11)" x="186.15" y="80.163" width="23.702" height="2.823" style="fill:#ecb941"/>
  <rect transform="matrix(.3971 -.9178 .9178 .3971 45.2 213.99)" x="173.68" y="71.182" width="23.585" height="2.824" style="fill:#ecb941"/>
  <path d="m213.43 165.47v-45.047c0-6.607-5.351-11.981-11.931-11.981h-4.289l-.019.462c-.353 9.674-4.571 15.671-8.063 19.005-3.371 3.22-6.678 4.636-7.436 4.775l-2.002 13.872h-19.522l-1.713-13.761c-14.686-5.629-15.245-21.063-15.409-24.101l-.011-.255-4.304.003c-6.578 0-11.931 5.375-11.931 11.981v45.047c0 6.022 4.458 10.972 10.223 11.813h66.184c5.767-.841 10.223-5.791 10.223-11.813zm-53.038-15.641h19.408v2.862h-19.408zm0 5.483h19.408v2.862h-19.408zm13.379 13.828h-7.643v-2.862h7.643zm6.082-5.483h-19.408v-2.862h19.408z" style="fill:#ecb941"/>
  <path d="m41.16 165.66c-5.54-2.295-8.418-5.036-8.555-8.147-.205-4.802 6.155-8.714 8.482-9.979-1.261-2.765-1.437-5.329-.522-7.625 1.682-4.25 6.381-5.948 6.58-6.018 2.352-1.085 4.617-1.641 6.712-1.641 1.44 0 2.819.264 4.097.786 3.498 1.421 5.381 4.378 6.134 5.851 2.281-1.498 4.385-2.257 6.257-2.257.688 0 1.351.103 1.975.306 2.102.684 3.306 2.335 3.904 3.446 3.361-2.975 7.344-4.482 11.845-4.482 8.394 0 16.288 5.308 18.509 6.936l.054.038v-22.483c0-6.588-5.353-11.946-11.931-11.946h-62.77c-6.578 0-11.931 5.359-11.931 11.946v44.916c0 6.588 5.353 11.946 11.931 11.946h6.998l-.049-.115c-1.565-4.483 1.144-9.619 2.28-11.478z" style="fill:#6082c0"/>
  <path d="m69.936 188.32c-4.074 0-7.386 2.748-7.386 6.128s3.312 6.128 7.386 6.128 7.39-2.748 7.39-6.128-3.315-6.128-7.39-6.128zm0 9.899c-2.774 0-5.029-1.692-5.029-3.771 0-2.08 2.256-3.771 5.029-3.771 2.774 0 5.033 1.692 5.033 3.771 0 2.08-2.259 3.771-5.033 3.771z" style="fill:#6082c0"/>
  <path d="m54.527 194.49c-3.296.335-5.737 2.935-5.446 5.798.281 2.76 2.996 4.51 6.458 4.158 3.46-.352 5.77-2.612 5.49-5.372-.292-2.863-3.209-4.919-6.502-4.584zm.796 7.831c-1.824.185-3.867-.441-4.052-2.255-.172-1.69 1.385-3.238 3.472-3.45 2.084-.212 3.921.991 4.092 2.682.184 1.812-1.692 2.838-3.512 3.023z" style="fill:#6082c0"/>
  <path d="m106.53 146.97-.267-.202c-6.446-5.111-12.419-7.702-17.754-7.702-.966 0-1.923.086-2.846.255-6.645 1.218-9.838 6.508-9.869 6.564l-1.062 1.794-.312-2.06c-.821-5.364-3.517-5.719-3.572-5.727-.186-.038-.385-.057-.59-.057-2.933 0-6.822 3.898-6.863 3.941l-.915.926-.333-1.254c-2.064-7.681-7.264-7.842-7.458-7.845-7.04.571-9.761 3.783-9.796 3.825-3.514 3.96.245 8.171.684 8.636l.738.77-.982.427c-9.876 4.285-9.308 7.912-9.296 7.971.337 2.604 6.085 5.246 9.628 6.298l1.009.302-.624.852c-5.668 7.724-3.973 11.542-3.567 12.223l.123.337h52.096c6.578 0 11.929-5.375 11.929-11.982l-.06-.613-.279-.166.339-.298z" style="fill:#6082c0"/>
  <path d="m107.37 143.67c-.065-.042-.122-.088-.186-.133v.426l-.277-.179v3.1c.111.072.287.192.463.32 1.408.997 4.524 3.592 4.886 7.269.3 3.038-1.349 6.167-4.886 9.303-.042.042-.082.082-.127.121l-.336.297-.235.205.235.091.463.186.007.003c.052.023 5.166 2.181 2.731 9.746-.036.117-3.53 11.741-17.765 11.741h-.121c-.078.013-8.755.45-20.291-6.082l-.316-.176-.251.261c-.055.059-5.632 5.789-11.995 5.659-.081.016-5.668.427-9.303-6.907l-.186-.368-.388.133c-.046.013-4.244 1.405-6.477-.694-.147-.137-.284-.293-.414-.463h-.616l-.003-.007h-2.151v.007h-.181l.118.277h-.328c.021.055.043.111.074.186.469 1.121 2.471 4.7 8.866 3.892.802 1.32 4.488 6.718 10.981 6.718h.003c.231.02 5.747.482 12.667-5.163 1.767.913 11.177 5.561 19.404 5.561.759 0 1.509-.039 2.239-.124.205.003 13.162.101 18.726-12.471.036-.072 3.423-6.949-1.454-12.269 1.147-1.095 4.531-4.749 4.244-9.56-.228-3.934-2.865-7.601-7.82-10.906z" style="fill:#6082c0"/>
  <path d="m39.651 177.52h-.301l.032.117c0 .004.025.071.059.159h.328z" style="fill:#6082c0"/>
  <path d="m106.91 143.35v.431l.277.179v-.426c-.01-.007-.018-.014-.029-.02z" style="fill:#6082c0"/>
  <path d="m41.801 199.08c-3.244 0-5.255 1.525-5.255 3.979 0 2.455 2.012 3.979 5.255 3.979 3.24 0 5.253-1.525 5.253-3.979s-2.013-3.979-5.253-3.979zm-.003 5.846c-1.456 0-3.196-.321-3.196-1.867 0-1.542 1.74-1.863 3.196-1.863 1.459 0 3.199.322 3.199 1.863 0 1.546-1.74 1.867-3.199 1.867z" style="fill:#6082c0"/>
  <rect x="191.43" y="211.81" width="2.533" height="9.469" style="fill:#074473"/>
  <path d="m192.69 210.7c-.848 0-1.464-.447-1.464-1.062 0-.636.643-1.135 1.464-1.135s1.464.499 1.464 1.135c0 .615-.616 1.062-1.464 1.062z" style="fill:#074473"/>
  <path d="m126.5 208.45h2.64v12.822h-2.64z" style="fill:#074473"/>
  <path d="m131.68 211.81h2.481v1.121c.713-.908 1.676-1.371 2.873-1.371 2.087 0 3.121 1.087 3.121 3.263v6.456h-2.533v-5.726c0-1.283-.375-1.888-1.464-1.888-1.176 0-1.945.748-1.945 1.995v5.619h-2.534v-9.469z" style="fill:#074473"/>
  <path d="m145.09 221.4c-2.088 0-2.533-.713-2.533-2.695v-5.115h-1.249v-1.783h1.249v-2.587h2.515v2.587h1.463v1.783h-1.463v5.241c0 .501.16.608.839.608h.624v1.906c-.695.02-1.178.055-1.445.055z" style="fill:#074473"/>
  <path d="m150.14 215.55c.108-1.283.767-1.96 1.855-1.96 1.179 0 1.838.677 1.874 1.96zm3.693 2.855c-.321.73-.873 1.052-1.73 1.052-1.231 0-1.892-.768-1.963-2.249h6.334c.017-.229.017-.444.017-.658 0-3.262-1.658-5.081-4.548-5.081-2.732 0-4.427 1.908-4.427 5.009 0 3.191 1.768 5.12 4.46 5.12 2.249 0 3.872-1.214 4.39-3.193z" style="fill:#074473"/>
  <path d="m158.17 211.81h2.354v1.621c.661-1.302 1.516-1.889 2.731-1.889.124 0 .249 0 .375.017v2.568h-.839c-1.373 0-2.087.713-2.087 2.139v5.013h-2.534z" style="fill:#074473"/>
  <path d="m165.02 211.81h2.48v1.121c.713-.908 1.677-1.371 2.873-1.371 2.087 0 3.122 1.087 3.122 3.263v6.456h-2.533v-5.726c0-1.283-.376-1.888-1.464-1.888-1.177 0-1.943.748-1.943 1.995v5.619h-2.535z" style="fill:#074473"/>
  <path d="m181.06 216.62v.89c0 1.34-.838 2.158-2.212 2.158-.767 0-1.249-.444-1.249-1.138 0-.734.392-1.037 1.194-1.268.483-.144 1.303-.196 2.267-.642zm.036 3.477c.017.446.107.837.285 1.178h2.64v-.429c-.427-.215-.535-.625-.535-1.319v-5.387c0-1.71-1.427-2.673-4.104-2.673-2.443 0-3.871 1.194-3.871 3.12v.177h2.373v-.143c0-.748.553-1.175 1.589-1.175 1.087 0 1.551.284 1.551 1.07 0 .909-.678.766-2.64 1.069-2.213.339-3.211 1.159-3.211 3.015 0 1.944 1.053 3.015 2.871 3.015 1.375-.001 2.428-.538 3.052-1.518z" style="fill:#074473"/>
  <path d="m188.46 221.4c-2.087 0-2.534-.713-2.534-2.695v-5.115h-1.249v-1.783h1.249v-2.587h2.516v2.587h1.463v1.783h-1.463v5.241c0 .501.16.608.838.608h.625v1.906c-.696.02-1.178.055-1.445.055z" style="fill:#074473"/>
  <path d="m198.31 216.53c0-1.891.821-2.925 2.231-2.925 1.409 0 2.212 1.034 2.212 2.925 0 1.889-.803 2.943-2.212 2.943-1.41.001-2.231-1.053-2.231-2.943zm-2.569 0c0 3.156 1.82 5.066 4.8 5.066s4.798-1.91 4.798-5.066-1.818-5.064-4.798-5.064-4.8 1.908-4.8 5.064z" style="fill:#074473"/>
  <path d="m207.07 211.81h2.48v1.121c.713-.908 1.677-1.371 2.873-1.371 2.088 0 3.121 1.087 3.121 3.263v6.456h-2.533v-5.726c0-1.283-.376-1.888-1.464-1.888-1.176 0-1.943.748-1.943 1.995v5.619h-2.534z" style="fill:#074473"/>
  <path d="m223.11 216.62v.89c0 1.34-.838 2.158-2.212 2.158-.768 0-1.249-.444-1.249-1.138 0-.734.393-1.037 1.194-1.268.483-.144 1.303-.196 2.267-.642zm.036 3.477c.017.446.107.837.285 1.178h2.64v-.429c-.427-.215-.535-.625-.535-1.319v-5.387c0-1.71-1.427-2.673-4.104-2.673-2.444 0-3.871 1.194-3.871 3.12v.177h2.373v-.143c0-.748.553-1.175 1.588-1.175 1.089 0 1.552.284 1.552 1.07 0 .909-.679.766-2.64 1.069-2.213.339-3.212 1.159-3.212 3.015 0 1.944 1.053 3.015 2.873 3.015 1.374-.001 2.426-.538 3.051-1.518z" style="fill:#074473"/>
  <path d="m227.84 208.45h2.533v12.822h-2.533z" style="fill:#074473"/>
  <path d="m251.1 240.46c-3.75 0-5.961-2.461-5.961-6.759 0-4.369 2.193-6.759 6.19-6.759 3.275 0 5.222 1.693 5.397 4.584h-2.582c-.213-1.445-1.185-2.23-2.815-2.23-2.298 0-3.519 1.534-3.519 4.405 0 2.817 1.256 4.369 3.431 4.369 1.592 0 2.638-.839 2.938-2.373h2.565c-.193 2.89-2.353 4.763-5.644 4.763z" style="fill:#074473"/>
  <path d="m260.69 235.36c0-1.889.814-2.924 2.21-2.924 1.398 0 2.193 1.035 2.193 2.924 0 1.891-.795 2.943-2.193 2.943-1.396 0-2.21-1.052-2.21-2.943zm-2.549 0c0 3.158 1.803 5.066 4.758 5.066s4.76-1.908 4.76-5.066c0-3.156-1.805-5.064-4.76-5.064s-4.758 1.909-4.758 5.064z" style="fill:#074473"/>
  <path d="m269.38 230.64h2.458v1.123c.71-.911 1.663-1.374 2.852-1.374 2.068 0 3.095 1.088 3.095 3.265v6.456h-2.513v-5.726c0-1.283-.372-1.889-1.45-1.889-1.17 0-1.929.747-1.929 1.996v5.619h-2.513z" style="fill:#074473"/>
  <path d="m282.68 240.23c-2.07 0-2.511-.711-2.511-2.691v-5.118h-1.24v-1.784h1.24v-2.588h2.494v2.588h1.451v1.784h-1.451v5.242c0 .499.159.608.831.608h.62v1.908c-.691.017-1.169.051-1.434.051z" style="fill:#074473"/>
  <path d="m287.69 234.38c.106-1.283.762-1.961 1.841-1.961 1.167 0 1.822.677 1.857 1.961zm3.663 2.852c-.317.732-.866 1.054-1.716 1.054-1.221 0-1.876-.768-1.947-2.247h6.282c.019-.234.019-.446.019-.66 0-3.263-1.647-5.083-4.512-5.083-2.709 0-4.389 1.908-4.389 5.011 0 3.191 1.751 5.118 4.424 5.118 2.229 0 3.838-1.212 4.351-3.193z" style="fill:#074473"/>
  <path d="m297.64 237.02c.035.963.672 1.426 1.964 1.426 1.008 0 1.54-.358 1.54-.945 0-.823-.814-.766-2.479-1.195-2.21-.572-3.254-1.25-3.254-2.855 0-1.908 1.45-3.156 3.857-3.156 2.529 0 4.017 1.195 4.105 3.227h-2.442c-.035-.801-.62-1.266-1.647-1.266-.956 0-1.415.286-1.415.875 0 .658.778.73 2.565 1.159 2.177.515 3.239 1.121 3.239 2.836 0 2.139-1.521 3.299-4.406 3.299-2.619 0-4.141-1.266-4.141-3.299v-.107h2.514z" style="fill:#074473"/>
  <path d="m308.06 240.23c-2.07 0-2.511-.711-2.511-2.691v-5.118h-1.24v-1.784h1.24v-2.588h2.494v2.588h1.45v1.784h-1.45v5.242c0 .499.159.608.831.608h.62v1.908c-.691.017-1.169.051-1.434.051z" style="fill:#074473"/>
  <path d="m242.01 221.63c-3.694 0-5.87-2.461-5.87-6.759 0-4.368 2.159-6.758 6.096-6.758 3.222 0 5.137 1.696 5.313 4.583h-2.544c-.21-1.445-1.167-2.229-2.77-2.229-2.264 0-3.466 1.534-3.466 4.404 0 2.819 1.237 4.369 3.38 4.369 1.566 0 2.595-.837 2.889-2.373h2.527c-.192 2.89-2.315 4.763-5.555 4.763z" style="fill:#074473"/>
  <path d="m251.45 216.53c0-1.891.801-2.925 2.176-2.925 1.377 0 2.16 1.034 2.16 2.925 0 1.889-.783 2.943-2.16 2.943-1.374.001-2.176-1.053-2.176-2.943zm-2.51 0c0 3.156 1.779 5.066 4.687 5.066 2.909 0 4.687-1.91 4.687-5.066s-1.777-5.064-4.687-5.064c-2.908 0-4.687 1.908-4.687 5.064z" style="fill:#074473"/>
  <path d="m260.09 208.45h2.474v12.822h-2.474z" style="fill:#074473"/>
  <path d="m264.88 208.45h2.474v12.822h-2.474z" style="fill:#074473"/>
  <path d="m271.67 215.55c.105-1.283.748-1.96 1.813-1.96 1.149 0 1.794.677 1.829 1.96zm3.607 2.855c-.312.73-.853 1.052-1.689 1.052-1.203 0-1.848-.768-1.918-2.249h6.186c.016-.229.016-.444.016-.658 0-3.262-1.619-5.081-4.442-5.081-2.666 0-4.32 1.908-4.32 5.009 0 3.191 1.724 5.12 4.355 5.12 2.194 0 3.78-1.214 4.286-3.193z" style="fill:#074473"/>
  <path d="m281.53 216.39c0-1.767.75-2.746 1.987-2.746 1.288 0 2.038.962 2.038 2.711 0 1.837-.715 2.8-2.003 2.8-1.291 0-2.022-.983-2.022-2.765zm-2.23 5.796c.105 1.855 1.568 2.96 4.06 2.96 1.531 0 2.681-.339 3.396-.909.992-.802 1.202-1.872 1.202-3.585v-8.844h-2.35v1.14c-.559-.997-1.43-1.478-2.667-1.478-2.351 0-3.918 1.891-3.918 5.009 0 2.907 1.568 4.798 3.953 4.798 1.237 0 2.057-.41 2.579-1.338v.837c0 1.677-.419 2.356-2.073 2.356-.836 0-1.323-.322-1.481-.947h-2.701z" style="fill:#074473"/>
  <path d="m300.13 216.62v.89c0 1.34-.818 2.158-2.159 2.158-.748 0-1.218-.444-1.218-1.138 0-.734.382-1.037 1.167-1.268.47-.144 1.271-.196 2.21-.642zm.038 3.477c.016.446.105.837.277 1.178h2.579v-.429c-.417-.215-.522-.625-.522-1.319v-5.387c0-1.71-1.395-2.673-4.007-2.673-2.387 0-3.781 1.194-3.781 3.12v.177h2.316v-.143c0-.748.54-1.175 1.551-1.175 1.062 0 1.516.284 1.516 1.07 0 .909-.662.766-2.579 1.069-2.16.339-3.135 1.159-3.135 3.015 0 1.944 1.027 3.015 2.805 3.015 1.34-.001 2.369-.538 2.98-1.518z" style="fill:#074473"/>
  <path d="m307.36 221.4c-2.038 0-2.474-.713-2.474-2.695v-5.115h-1.218v-1.783h1.218v-2.587h2.455v2.587h1.43v1.783h-1.43v5.241c0 .501.158.608.82.608h.61v1.906c-.68.02-1.15.055-1.411.055z" style="fill:#074473"/>
  <path d="m312.29 215.55c.105-1.283.748-1.96 1.812-1.96 1.149 0 1.794.677 1.829 1.96zm3.606 2.855c-.314.73-.853 1.052-1.689 1.052-1.204 0-1.847-.768-1.917-2.249h6.184c.016-.229.016-.444.016-.658 0-3.262-1.619-5.081-4.442-5.081-2.665 0-4.319 1.908-4.319 5.009 0 3.191 1.724 5.12 4.354 5.12 2.196 0 3.781-1.214 4.286-3.193z" style="fill:#074473"/>
  <path d="m291.43 210.7c-.848 0-1.464-.447-1.464-1.062 0-.636.643-1.135 1.464-1.135s1.464.499 1.464 1.135c0 .615-.616 1.062-1.464 1.062z" style="fill:#074473"/>
  <rect x="290.19" y="211.81" width="2.474" height="9.469" style="fill:#074473"/>
  <path d="m129.12 233.22v-3.709h2.69c1.22 0 1.822.642 1.822 1.853 0 1.319-.62 1.855-1.965 1.855h-2.547zm0 2.32h3.22c2.513 0 3.892-1.5 3.892-4.14 0-2.693-1.379-4.119-4.069-4.119h-5.662v12.824h2.618v-4.565z" style="fill:#074473"/>
  <path d="m138.09 230.64h2.335v1.622c.655-1.3 1.504-1.889 2.707-1.889.123 0 .248 0 .372.017v2.569h-.832c-1.362 0-2.069.715-2.069 2.139v5.013h-2.513z" style="fill:#074473"/>
  <path d="m146.96 235.36c0-1.889.814-2.924 2.212-2.924 1.397 0 2.193 1.035 2.193 2.924 0 1.891-.796 2.943-2.193 2.943-1.398 0-2.212-1.052-2.212-2.943zm-2.547 0c0 3.158 1.804 5.066 4.759 5.066s4.759-1.908 4.759-5.066c0-3.156-1.804-5.064-4.759-5.064-2.955.001-4.759 1.909-4.759 5.064z" style="fill:#074473"/>
  <path d="m157.7 235.22c0-1.767.761-2.747 2.018-2.747 1.309 0 2.069.964 2.069 2.712 0 1.837-.726 2.8-2.036 2.8-1.308-.001-2.051-.983-2.051-2.765zm-2.265 5.796c.107 1.855 1.592 2.96 4.122 2.96 1.558 0 2.726-.339 3.451-.909 1.008-.802 1.22-1.872 1.22-3.585v-8.846h-2.388v1.14c-.567-.999-1.45-1.479-2.707-1.479-2.389 0-3.981 1.889-3.981 5.011 0 2.905 1.592 4.799 4.016 4.799 1.255 0 2.087-.412 2.618-1.34v.839c0 1.677-.426 2.354-2.105 2.354-.85 0-1.345-.32-1.505-.944z" style="fill:#074473"/>
  <path d="m166.44 230.64h2.335v1.622c.655-1.3 1.504-1.889 2.708-1.889.123 0 .247 0 .37.017v2.569h-.831c-1.362 0-2.071.715-2.071 2.139v5.013h-2.512v-9.471z" style="fill:#074473"/>
  <path d="m178.57 235.45v.892c0 1.34-.832 2.158-2.194 2.158-.761 0-1.239-.444-1.239-1.14 0-.732.389-1.035 1.185-1.266.478-.144 1.292-.196 2.248-.644zm.036 3.479c.017.446.105.837.283 1.178h2.618v-.429c-.425-.215-.53-.625-.53-1.321v-5.385c0-1.71-1.416-2.674-4.07-2.674-2.425 0-3.839 1.195-3.839 3.12v.179h2.353v-.143c0-.749.548-1.178 1.574-1.178 1.08 0 1.54.286 1.54 1.071 0 .911-.674.768-2.619 1.071-2.194.339-3.185 1.159-3.185 3.015 0 1.944 1.044 3.015 2.849 3.015 1.362-.002 2.406-.539 3.026-1.519z" style="fill:#074473"/>
  <path d="m183.17 230.64h2.388v1.052c.691-.875 1.558-1.319 2.601-1.319 1.186 0 2 .427 2.618 1.391.655-.911 1.557-1.391 2.672-1.391 1.875 0 3.078 1.176 3.078 3.12v6.618h-2.476v-6.101c0-.928-.531-1.445-1.398-1.445-.956 0-1.592.677-1.592 1.803v5.743h-2.459v-6.082c0-.947-.513-1.464-1.363-1.464-.956 0-1.592.677-1.592 1.82v5.726h-2.477z" style="fill:#074473"/>
  <path d="m198.69 230.64h2.39v1.052c.689-.875 1.557-1.319 2.6-1.319 1.185 0 1.999.427 2.618 1.391.654-.911 1.558-1.391 2.67-1.391 1.876 0 3.08 1.176 3.08 3.12v6.618h-2.477v-6.101c0-.928-.531-1.445-1.398-1.445-.956 0-1.592.677-1.592 1.803v5.743h-2.458v-6.082c0-.947-.513-1.464-1.363-1.464-.956 0-1.592.677-1.592 1.82v5.726h-2.477v-9.471z" style="fill:#074473"/>
  <path d="m219.02 230.64h2.458v1.123c.709-.911 1.664-1.374 2.849-1.374 2.07 0 3.097 1.088 3.097 3.265v6.456h-2.513v-5.726c0-1.283-.372-1.889-1.45-1.889-1.168 0-1.928.747-1.928 1.996v5.619h-2.513z" style="fill:#074473"/>
  <path d="m231.63 235.22c0-1.767.761-2.747 2.017-2.747 1.309 0 2.07.964 2.07 2.712 0 1.837-.726 2.8-2.035 2.8-1.309-.001-2.052-.983-2.052-2.765zm-2.265 5.796c.105 1.855 1.592 2.96 4.123 2.96 1.557 0 2.724-.339 3.45-.909 1.008-.802 1.221-1.872 1.221-3.585v-8.846h-2.39v1.14c-.566-.999-1.45-1.479-2.707-1.479-2.388 0-3.98 1.889-3.98 5.011 0 2.905 1.592 4.799 4.016 4.799 1.255 0 2.088-.412 2.618-1.34v.839c0 1.677-.426 2.354-2.106 2.354-.849 0-1.344-.32-1.505-.944z" style="fill:#074473"/>
  <path d="m215.54 229.53c-.848 0-1.464-.447-1.464-1.062 0-.636.643-1.135 1.464-1.135s1.464.499 1.464 1.135c0 .616-.616 1.062-1.464 1.062z" style="fill:#074473"/>
  <rect x="214.26" y="230.64" width="2.512" height="9.471" style="fill:#074473"/>
  <path d="m27.951 212.96h4.741v26.219h-4.741z" style="fill:#6082c0"/>
  <path d="m56.976 214.23c1.96 1.443 3.139 3.927 3.537 7.453h-4.534c-.277-1.623-.907-2.972-1.891-4.046-.985-1.074-2.565-1.611-4.741-1.611-2.971 0-5.096 1.376-6.374 4.127-.829 1.785-1.243 3.988-1.243 6.608 0 2.637.587 4.856 1.762 6.658s3.023 2.702 5.545 2.702c1.934 0 3.467-.559 4.599-1.678 1.131-1.119 1.913-2.65 2.345-4.594h4.534c-.518 3.493-1.814 6.047-3.887 7.662s-4.724 2.423-7.954 2.423c-3.627 0-6.52-1.258-8.679-3.775s-3.239-5.661-3.239-9.432c0-4.624 1.183-8.223 3.55-10.798 2.366-2.574 5.38-3.862 9.042-3.862 3.124-.002 5.667.72 7.628 2.163z" style="fill:#6082c0"/>
  <path d="m64.787 212.96h4.56v3.493c.935-1.197 1.957-2.123 3.065-2.779 1.576-.984 3.429-1.476 5.559-1.476 3.152 0 5.828 1.144 8.027 3.431s3.299 5.555 3.299 9.801c0 5.74-1.587 9.839-4.76 12.298-2.012 1.557-4.353 2.337-7.023 2.337-2.098 0-3.858-.435-5.28-1.304-.832-.492-1.76-1.336-2.783-2.534v13.454h-4.664zm17.546 20.648c1.447-1.73 2.171-4.317 2.171-7.76 0-2.099-.321-3.902-.962-5.411-1.213-2.902-3.432-4.353-6.655-4.353-3.241 0-5.46 1.534-6.655 4.6-.641 1.64-.962 3.722-.962 6.247 0 2.033.32 3.763.962 5.19 1.213 2.722 3.432 4.083 6.655 4.083 2.184-.001 3.999-.866 5.446-2.596z" style="fill:#6082c0"/>
  <path d="m113.02 214.23c1.96 1.443 3.139 3.927 3.537 7.453h-4.535c-.276-1.623-.906-2.972-1.891-4.046-.984-1.074-2.565-1.611-4.742-1.611-2.971 0-5.096 1.376-6.374 4.127-.829 1.785-1.243 3.988-1.243 6.608 0 2.637.587 4.856 1.762 6.658s3.023 2.702 5.545 2.702c1.934 0 3.467-.559 4.599-1.678 1.131-1.119 1.913-2.65 2.344-4.594h4.535c-.518 3.493-1.814 6.047-3.887 7.662s-4.724 2.423-7.954 2.423c-3.627 0-6.52-1.258-8.679-3.775s-3.239-5.661-3.239-9.432c0-4.624 1.183-8.223 3.55-10.798 2.366-2.574 5.38-3.862 9.042-3.862 3.126-.002 5.67.72 7.63 2.163z" style="fill:#6082c0"/>
  <path d="m30.323 208.47c-2.253 0-3.887-1.186-3.887-2.82 0-1.69 1.708-3.014 3.887-3.014s3.886 1.324 3.886 3.014c0 1.634-1.635 2.82-3.886 2.82z" style="fill:#6082c0"/>
  <path d="m39.886 177.4h-.301l.032.117c0 .004.025.071.059.159h.328z" style="fill:#6082c0"/>
  <path d="m107.09 143.26v.43l.277.179v-.426c-.01-.007-.018-.014-.029-.02z" style="fill:#6082c0"/>
  <path d="m260.11 51.617c.354-.294.848-.608 1.47-.934l1.32-.696c1.164-.617 1.984-1.152 2.437-1.588.791-.757 1.191-1.683 1.191-2.751 0-1.011-.375-1.941-1.115-2.765-.742-.826-1.928-1.245-3.525-1.245-1.924 0-3.286.654-4.051 1.945-.429.73-.657 1.682-.676 2.832l-.001.084h1.927l.003-.08c.025-.797.158-1.428.395-1.873.439-.824 1.244-1.241 2.394-1.241.778 0 1.407.219 1.871.652.462.431.696 1.023.696 1.76 0 .628-.257 1.194-.765 1.683-.328.318-.909.708-1.726 1.16l-1.85 1.016c-1.249.688-2.101 1.467-2.534 2.314-.43.843-.681 1.846-.746 2.98l-.005.087h9.642v-1.721h-7.509c.177-.587.566-1.131 1.157-1.619z" style="fill:#993022"/>
  <path d="m272.25 41.685c-2.014 0-3.424 1.022-4.191 3.037-.406 1.072-.612 2.372-.612 3.865 0 1.928.344 3.488 1.023 4.637.822 1.387 2.09 2.091 3.771 2.091 1.863 0 3.224-.859 4.044-2.555.562-1.171.846-2.67.846-4.457 0-1.885-.315-3.393-.936-4.48-.809-1.419-2.136-2.138-3.945-2.138zm2.061 10.863c-.516.73-1.217 1.1-2.085 1.1-1.091 0-1.843-.59-2.297-1.805-.298-.799-.449-1.873-.449-3.193 0-1.754.235-3.098.7-3.994.462-.891 1.172-1.324 2.171-1.324 1.086 0 1.796.455 2.172 1.39.38.947.573 2.173.573 3.644 0 2.037-.264 3.444-.785 4.182z" style="fill:#993022"/>
  <path d="m282.35 41.803c-.238.985-.597 1.615-1.067 1.874-.482.265-1.353.457-2.589.571l-.075.007v1.421h3.247v9.282h2.015v-13.218h-1.516z" style="fill:#993022"/>
  <path d="m294.26 47.866c.448-.254.789-.516 1.014-.781.448-.52.675-1.206.675-2.04 0-.905-.388-1.707-1.154-2.382-.763-.673-1.827-1.014-3.163-1.014-1.382 0-2.467.362-3.223 1.075-.758.715-1.142 1.582-1.142 2.577 0 .801.265 1.462.786 1.963.24.234.566.443.97.625-.705.3-1.251.72-1.625 1.25-.406.576-.612 1.268-.612 2.057 0 1.34.479 2.377 1.425 3.082.939.7 2.101 1.055 3.456 1.055 1.506 0 2.689-.413 3.517-1.227.828-.815 1.248-1.822 1.248-2.993 0-.994-.317-1.815-.943-2.439-.306-.299-.719-.571-1.229-.808zm-.608 5.201c-.513.398-1.168.6-1.949.6-.974 0-1.701-.243-2.161-.721-.461-.479-.695-1.056-.695-1.714 0-.764.254-1.37.756-1.8.506-.433 1.17-.653 1.975-.653.831 0 1.52.216 2.049.641.523.421.788 1.049.788 1.867.001.788-.256 1.386-.763 1.78zm-3.864-9.165c.354-.39.941-.588 1.747-.588.813 0 1.425.199 1.817.591s.591.826.591 1.29c0 .536-.208 1.005-.619 1.394-.412.39-.994.587-1.732.587-.633 0-1.19-.171-1.654-.507-.463-.336-.687-.788-.687-1.383.001-.525.182-.991.537-1.384z" style="fill:#993022"/>
  <path d="m29.226 89.54c0-.68.232-1.289.691-1.811.455-.519 1.12-.782 1.975-.782.102 0 .196.003.282.009.084.006.178.018.279.036l.098.017v-1.935l-.075-.008c-.189-.019-.323-.031-.401-.037-.081-.006-.139-.01-.172-.01-.713 0-1.352.248-1.898.739-.398.357-.684.67-.865.948v-1.465h-1.834v10.086h1.922v-5.787z" style="fill:#6082c0"/>
  <path d="m37.547 95.681c.533 0 1.018-.051 1.44-.15.792-.175 1.466-.519 2.002-1.02.321-.289.616-.665.876-1.118.261-.456.417-.876.463-1.249l.012-.094h-1.883l-.017.061c-.122.426-.332.806-.625 1.129-.523.557-1.235.839-2.116.839-.941 0-1.645-.297-2.09-.882-.438-.576-.682-1.347-.725-2.295h7.591v-.083c0-1.001-.053-1.743-.156-2.2-.118-.677-.358-1.277-.711-1.783-.368-.535-.911-.976-1.612-1.311-.7-.334-1.432-.504-2.177-.504-1.477 0-2.691.511-3.608 1.518-.914 1.005-1.378 2.33-1.378 3.937 0 1.633.461 2.923 1.371 3.833.909.91 2.034 1.372 3.343 1.372zm-2.623-6.27c.047-.788.327-1.449.833-1.965.523-.534 1.179-.804 1.951-.804 1.078 0 1.857.392 2.316 1.163.239.401.398.941.472 1.606z" style="fill:#6082c0"/>
  <path d="m52.188 97.462c.394-.738.593-1.755.593-3.022v-9.104h-1.785v1.108c-.298-.336-.594-.601-.882-.79-.619-.389-1.353-.587-2.181-.587-1.223 0-2.281.479-3.145 1.425-.862.944-1.299 2.272-1.299 3.946 0 1.776.435 3.07 1.295 3.845.857.773 1.87 1.165 3.013 1.165.819 0 1.488-.128 1.989-.379.434-.217.818-.537 1.143-.953.002 1.212-.11 2.072-.334 2.557-.397.865-1.255 1.304-2.551 1.304-.821 0-1.428-.179-1.804-.532-.238-.228-.4-.558-.48-.983l-.013-.068h-1.945l.008.091c.093 1.041.538 1.818 1.322 2.309.775.485 1.741.73 2.872.73 2.039 0 3.446-.694 4.184-2.062zm-1.192-7.218c0 .799-.141 1.507-.419 2.104-.501 1.059-1.342 1.573-2.572 1.573-.772 0-1.394-.284-1.851-.844-.461-.566-.694-1.407-.694-2.499 0-.935.119-1.7.353-2.274.443-1.075 1.242-1.597 2.445-1.597.792 0 1.453.29 1.965.862.512.573.773 1.474.773 2.675z" style="fill:#6082c0"/>
  <rect x="54.824" y="85.289" width="1.951" height="10.04" style="fill:#6082c0"/>
  <path d="m63.213 84.956c-1.509 0-2.728.507-3.624 1.508-.894.998-1.348 2.355-1.348 4.035 0 1.569.431 2.838 1.28 3.772.852.936 2.016 1.41 3.46 1.41 1.729 0 3.025-.537 3.851-1.596.821-1.053 1.237-2.403 1.237-4.012 0-1.67-.475-2.954-1.411-3.818-.934-.862-2.094-1.299-3.445-1.299zm2.224 7.915c-.41.801-1.181 1.208-2.292 1.208-1.013 0-1.762-.343-2.226-1.019-.47-.685-.708-1.556-.708-2.589 0-1.077.239-2.008.71-2.768.463-.747 1.218-1.126 2.243-1.126 1.156 0 1.981.446 2.452 1.325.301.565.453 1.312.453 2.218.001 1.005-.212 1.931-.632 2.751z" style="fill:#6082c0"/>
  <path d="m74.804 85.021c-.685 0-1.317.13-1.877.387-.506.232-.994.603-1.451 1.105v-1.27h-1.834v10.086h1.922v-5.279c0-.638.043-1.134.129-1.475.084-.334.269-.663.552-.979.351-.394.764-.66 1.229-.791.258-.078.594-.117 1-.117.792 0 1.323.288 1.622.881.182.357.274.836.274 1.425v6.335h1.951v-6.446c0-1.009-.148-1.798-.439-2.345-.535-1.007-1.57-1.517-3.078-1.517z" style="fill:#6082c0"/>
  <path d="m89.396 94.019c-.353.033-.582 0-.66-.109-.064-.09-.097-.214-.097-.368v-5.715c0-.966-.397-1.688-1.181-2.147-.776-.45-1.796-.678-3.031-.678-1.068 0-2.021.246-2.832.732-.824.493-1.259 1.377-1.292 2.628l-.003.086h1.798l.009-.073c.062-.497.197-.874.4-1.121.364-.449.997-.677 1.881-.677.772 0 1.371.126 1.781.374.402.243.597.626.597 1.17 0 .264-.036.467-.108.604-.124.247-.368.389-.744.435l-2.798.333c-.993.118-1.808.439-2.422.953-.622.52-.937 1.261-.937 2.201 0 .859.319 1.585.949 2.157.627.57 1.445.859 2.43.859.815 0 1.572-.168 2.25-.499.608-.297 1.095-.647 1.451-1.042.063.322.158.582.285.773.288.43.754.648 1.385.648.248 0 .449-.009.596-.028.148-.019.361-.067.635-.141l.061-.017v-1.394l-.097.016c-.108.017-.21.031-.306.04zm-2.678-3.672v1.198c0 .997-.463 1.695-1.415 2.135-.565.265-1.156.399-1.758.399-.486 0-.912-.134-1.266-.399-.351-.263-.523-.613-.523-1.07 0-.607.252-1.036.77-1.312.31-.167.783-.292 1.405-.37l1.06-.129c.325-.037.663-.1 1.004-.187.281-.074.523-.162.723-.265z" style="fill:#6082c0"/>
  <rect x="90.998" y="81.557" width="1.922" height="13.772" style="fill:#6082c0"/>
  <path d="m102.2 90.294c-.443-.275-1.321-.563-2.608-.853l-1.182-.269c-.506-.115-.893-.248-1.15-.398-.435-.245-.646-.559-.646-.961 0-.368.16-.657.488-.881.333-.229.836-.345 1.495-.345.989 0 1.691.211 2.081.623.241.293.379.621.41.977l.007.076h1.816l.002-.082c.013-.659-.209-1.282-.661-1.851-.718-.893-1.9-1.346-3.513-1.346-1.232 0-2.229.299-2.962.889-.738.594-1.113 1.383-1.113 2.343 0 .825.401 1.478 1.19 1.942.435.263 1.117.503 2.025.714l1.417.334c.748.176 1.255.332 1.505.464.378.208.561.502.561.899 0 .534-.233.917-.712 1.172-.49.261-1.066.393-1.712.393-1.083 0-1.852-.261-2.284-.775-.233-.282-.378-.696-.429-1.233l-.007-.076h-1.85l.004.087c.047 1.004.408 1.859 1.075 2.541.668.683 1.812 1.03 3.401 1.03 1.475 0 2.591-.331 3.318-.985.729-.655 1.099-1.446 1.099-2.35-.002-.939-.359-1.639-1.065-2.079z" style="fill:#6082c0"/>
  <path d="m55.8 83.672c-.84 0-1.449-.442-1.449-1.051 0-.63.637-1.123 1.449-1.123s1.449.493 1.449 1.123c0 .609-.61 1.051-1.449 1.051" style="fill:#6082c0"/>
 </g>
</svg>
