<?xml version="1.0" encoding="UTF-8"?>
<svg version="1.1" viewBox="0 0 1196 636" xml:space="preserve" xmlns="http://www.w3.org/2000/svg"><path d="m247 634c-9.2-0.76-25-2.7-33-4-59-9.9-113-42-151-90-34-43-54-95-62-158-2.5-21-2.5-65-0.1-86 6.6-58 26-112 58-159 14-20 39-49 56-64 46-39 101-63 161-71 13-1.7 64-1.8 76-0.036 28 4 50 9.8 71 19 90 38 147 119 161 229 2.2 17 2.4 72 0.42 88-4.6 37-12 67-26 99-6.1 14-18 38-20 41-0.76 0.87-1.4 1.9-1.4 2.3 0 1.1-15 24-22 32-20 26-46 51-73 69-43 29-87 45-138 52-12 1.5-49 2.7-58 2zm74-51c42-5.2 80-24 110-53 34-34 57-83 66-139 6-39 5-90-2.5-129-15-80-50-137-106-173-31-20-67-31-106-31-46 0-84 14-119 43-40 34-69 90-78 155-4 29-4.1 73-0.086 104 9.6 74 39 137 82 175 31 28 66 44 105 48 12 1.4 35 1.2 49-0.43zm609 50c-29-2.3-56-7.3-83-16-11-3.3-24-8.1-29-11-9.2-4.3-10-5-13-9.6l-2.8-5 1.3-9.6c3-23 4.3-35 5.4-49 3.2-41 4-56 4.7-83l0.65-27 3.1-0.52c1.7-0.28 10-1.2 19-2 8.5-0.82 17-1.7 19-2l3.1-0.52 0.68 24c1.7 60 7.2 88 22 109 4 5.8 15 16 21 19 16 9.3 40 14 76 14 33 0.34 59-4.6 82-16 28-14 47-36 53-63 7.9-35 0.41-61-26-87-21-21-39-33-118-75-50-27-75-42-96-59-45-36-63-74-58-123 3.6-38 20-71 48-99 35-35 84-57 141-64 17-1.9 61-1.3 82 1.1 30 3.6 60 9.6 85 17 11 3.4 12 3.9 13 6.9 1.5 3 1.4 4.2-1.1 17-8.4 44-14 90-18 135-0.5 7-1.2 13-1.5 14-0.3 0.48-4.7 1.2-9.8 1.6-5.1 0.39-11 0.86-12 1.1-15 1.8-15 1.7-18-1.2l-3-2.8 1.6-16c2.1-22 1.4-51-1.5-63-8.9-39-32-54-89-58-36-2.7-66 1.9-90 14-12 6.2-21 12-31 22-6.9 7-9.4 11-13 18-6 12-7.7 19-8.5 32-1.5 27 8.1 47 33 72 21 20 37 30 111 69 51 27 64 34 79 44 29 19 48 36 63 58 9.1 13 15 26 19 41 2.3 10 2.2 41-0.097 53-5.6 29-14 49-31 72-34 47-97 78-169 85-16 1.5-49 2-63 0.96z"/><circle cx="655" cy="578" r="58" fill="#b7b7b7"/></svg>
