<?xml version="1.0" encoding="UTF-8" standalone="no"?>
<svg
   xmlns:dc="http://purl.org/dc/elements/1.1/"
   xmlns:cc="http://creativecommons.org/ns#"
   xmlns:rdf="http://www.w3.org/1999/02/22-rdf-syntax-ns#"
   xmlns:svg="http://www.w3.org/2000/svg"
   xmlns="http://www.w3.org/2000/svg"
   xmlns:sodipodi="http://sodipodi.sourceforge.net/DTD/sodipodi-0.dtd"
   xmlns:inkscape="http://www.inkscape.org/namespaces/inkscape"
   inkscape:version="1.0 (4035a4fb49, 2020-05-01)"
   sodipodi:docname="passport.svg"
   id="svg4"
   version="1.1"
   clip-rule="evenodd"
   fill-rule="evenodd"
   height="17.946894"
   width="14">
  <metadata
     id="metadata10">
    <rdf:RDF>
      <cc:Work
         rdf:about="">
        <dc:format>image/svg+xml</dc:format>
        <dc:type
           rdf:resource="http://purl.org/dc/dcmitype/StillImage" />
        <dc:title></dc:title>
      </cc:Work>
    </rdf:RDF>
  </metadata>
  <defs
     id="defs8" />
  <sodipodi:namedview
     fit-margin-bottom="0"
     fit-margin-right="0"
     fit-margin-left="0"
     fit-margin-top="0"
     inkscape:current-layer="svg4"
     inkscape:window-maximized="0"
     inkscape:window-y="23"
     inkscape:window-x="26"
     inkscape:cy="5.4963728"
     inkscape:cx="3"
     inkscape:zoom="42"
     showgrid="false"
     id="namedview6"
     inkscape:window-height="2096"
     inkscape:window-width="1920"
     inkscape:pageshadow="2"
     inkscape:pageopacity="0"
     guidetolerance="10"
     gridtolerance="10"
     objecttolerance="10"
     borderopacity="1"
     bordercolor="#666666"
     pagecolor="#ffffff" />
  <path
     sodipodi:nodetypes="cccccccccccccccccccccsccccccccscccccccccccccccccccc"
     d="M 0,0 V 17.946894 H 14 V 0 Z m 7,3.4963728 c 0.398,0.569 0.815031,1.265031 1.082031,2.332031 H 5.917969 C 6.225969,4.5944038 6.767,3.8293728 7,3.4963728 Z m -0.841797,0.08984 c -0.413,0.646 -0.737781,1.410187 -0.925781,2.242187 H 3.363281 c 0.52,-1.13 1.549922,-1.975187 2.794922,-2.242187 z m 1.683594,0 c 1.245,0.267 2.274922,1.112187 2.794922,2.242187 H 8.767578 c -0.186,-0.821 -0.503781,-1.581187 -0.925781,-2.242187 z m -4.714844,2.91016 h 1.986328 c -0.088,0.663 -0.088,1.337 0,2 H 3.126953 c -0.082,-0.319 -0.126953,-0.655 -0.126953,-1 0,-0.345 0.04495,-0.68 0.126953,-1 z m 2.660156,0 h 2.427735 c 0.096,0.662 0.09505,1.338 -0.002,2 H 5.787062 c -0.097,-0.662 -0.097,-1.338 0,-2 z m 3.09961,0 h 1.986328 c 0.082,0.32 0.126953,0.655 0.126953,1 0,0.345 -0.04495,0.681 -0.126953,1 H 8.886719 c 0.088,-0.663 0.088,-1.337 0,-2 z m -5.523438,2.667969 h 1.869141 c 0.18,0.795 0.489781,1.5571872 0.925781,2.2421872 -1.246,-0.267 -2.274922,-1.112187 -2.794922,-2.2421872 z m 2.554688,0 H 8.082031 C 7.773031,10.397342 7.233,11.163373 7,11.496373 6.767,11.163373 6.226969,10.398342 5.917969,9.1643418 Z m 2.849609,0 h 1.869141 c -0.52,1.1300002 -1.548922,1.9751872 -2.794922,2.2421872 0.439,-0.689 0.747781,-1.4521872 0.925781,-2.2421872 z M 3,13.496373 h 8 v 1 H 3 Z"
     id="path857" />
</svg>
