<svg xmlns="http://www.w3.org/2000/svg" viewBox="0 0 555.02 272"><defs><style>.cls-1{fill:#ea515a;}</style></defs><title>Asset 1</title><g id="Layer_2" data-name="Layer 2"><g id="Layer_1-2" data-name="Layer 1"><path class="cls-1" d="M137.85,122.9V267.76h44.77V86.34a73,73,0,0,0-7.6-.44C156.26,85.9,137.85,93.86,137.85,122.9Z"/><path class="cls-1" d="M458.2,82.19c-53.42,0-96.8,42.52-96.8,94.9S404.78,272,458.2,272,555,229.47,555,177.09,511.62,82.19,458.2,82.19Zm0,152.47c-29.65,0-53.59-25.76-53.59-57.57s23.94-57.56,53.59-57.56,53.59,25.76,53.59,57.56S487.85,234.66,458.2,234.66Z"/><path class="cls-1" d="M163,0a27.84,27.84,0,1,0,27.8,27.88A27.85,27.85,0,0,0,163,0Z"/><path class="cls-1" d="M92.11,234.13c-19.33,0-23.56-11.13-23.56-28V125.42H85.43c25.3,0,32.22-16,32.22-32.37a65.78,65.78,0,0,0-.37-6.63H68.55v-51H23.84v51H0v39H23.84v81.44c0,34,10.19,63.52,59,63.52,9.66,0,22.18-2,29.86-4.84l-1.55-35.12C105.92,232.75,97.89,234.13,92.11,234.13Z"/><polygon class="cls-1" points="381.86 267.76 304.6 169.02 380.68 86.42 323.03 86.42 256.32 162.99 256.32 1.11 211.55 1.11 211.55 267.76 256.32 267.76 256.32 170.39 327.78 267.76 381.86 267.76"/></g></g></svg>