<svg enable-background="new 0 0 719.7 499.4" version="1.1" viewBox="0 0 304.9 391.8" xmlns="http://www.w3.org/2000/svg">
 <path d="m304.9 8.1v231c0 127.4-152.5 152.7-152.5 152.7s-152.4-25.3-152.4-152.7v-231s63.4-8.1 152.5-8.1c89 0 152.4 8.1 152.4 8.1z" style="fill:#1474ba"/>
 <path d="m41.1 38.1c1.4 2.3 3 4.9 6.8 4.9s6.6-1.6 8.2-4.1c-3.6 1.3-6.8-1.6-8.1-3.3-1.6-2.1-3.4-4.5-7-4.5-1 0-3.5 0-5.8 1.5 3.2.9 4.9 3.9 5.9 5.5zm9.4 2.3c-5.8 1.9-7.5-5.7-9.9-6.9 3.5-.8 5.8 6.6 9.9 6.9z" style="fill:#fff"/>
 <path d="m109.1 30.5c4 2.9 12.8 3.2 16.3-.5 2.6 2.7 9.9 3 13.9.2 2.9 1.2 8.9 4.2 14.8-2.6-3.3 0-6.1-1.8-7.8-3-2.7-1.8-5.3-3.6-10.4-.7-4.4-2.7-8.9-2.9-14-.3-5.4-3.9-12.4-1.6-14.5-.3-4.1-2-11.4-2.2-16.2 2.1-3.1 2.8-5.5 7.3-5.5 11.5 0 7.8 4.8 14.6 14 15.2 4.7.3 12.2-1.2 19.8-1.8 7.3-.6 14.7-.4 19.2 1.4 7 2.9 7.2 10.1 1.9 11.9-4.7 1.5-17.2-3.4-23 .6-5.9-7.3-23.1.2-30.9-1.2-.7 2.2-2.5 4.6-5.7 4.1 3.2 3.9 1.7 12.8-5.5 13.2-1.8 4.6-6.2 6.4-9.3 4.3-.9 4.3-7.5 7.2-10.4 4.4-1.7 1.8-3 5.2-2.3 7.1-2.3.7-3 3.2-5.6 3.8.4-2 .3-4-1.2-5-1.1-.7-2.6-.8-3.9 0l-3.8-.2 2.5 1.4c-.2.3-.4.7-.5 1.1 1.1-.5 2.9-.2 3.6.5l-.3.5c-3.4-.6-5.6.9-5.9 3l-2.4 2.8 3.1-.8c.4.5 1 1 1.7 1.2 1.4.5 2.6-.1 2.8-.5.2-.6-.5-.7-.5-.7.7-.3 1.3-.4 1.6-.1.3.4.4 1.6-.9 2.2-1.5.7-2.9.4-3.7-.1-1.9 3.2 0 5.6 2.2 6.1l1.2 3.5.7-3.5c2.2-.4 2.9-1.8 3.2-3.2.5.3 1.1.5 1.8.6l1.4 3 .7-3c.2-.1.4-.1.5-.2 2-1.2 1.4-3.3 1-4.2 2.2-.2 4.1-.7 4.8-3.3 2.5 1.7 6.2.7 8.7-.7l-2-1.6s4.4-.4 7-1.8l-1.9-1.5s5.9-1.8 7-2.7c-.1-.1-2-1.1-2-1.1s4.2-2 6.2-7.2c8.3-.4 15.1-11.1 24.3-12-1.2-1.2-2.8-1.9-3.3-2.1l.6-1.6c6 .7 7.4 3.5 9.3 7.9s5.3 7.7 9.3 8.6c4 1 7.3.4 8.4.4 4.7 0 7.5 2.7 7.5 7.4 0 1.8-.9 3.6-1.4 4.5-1.5.5-4.7-3.1-7.5-1.6-.5.2-.8.6-1.1.9l-3.3.8 2.7.9c-.1.7 0 1.5.3 2.2 2.4-1 3.7-.7 4.9-.6l-.4 1.3c-1.5-.1-6.9.2-6.4 4.7.1.8.5 1.6 1 2.2l-.8 3.7 3-2.5c1.4.3 3 0 4.6-1.1 1.2 1.8 3.2 3.1 5.5 2.8l2.7 3-.5-3.7c1.5-.9 2.5-2.5.9-6.4.8.3 1.6.3 2.3 0l2.1 1.9-.7-3.2c.7-1.2.8-3-.2-4.6 1.5-1.4 2.5-2.8 3.3-4.1-1-.1-2.5-.5-2.5-.5s2.5-2.6 3.1-3.6c-1.7-1.1-3.5-2-3.5-3.6 1.4 0 3.1-.9 3.1-2.6 0-1.4-1.2-2.7-3.1-2.7 0-1.9-1.1-2.8-2.6-2.8-1.4 0-2.5 1-2.5 2.8h-3.3c1.9-3.2-1.6-13.8-13.7-9.9l-1.1-1.7c5.7-3.4 12.7-.6 17.8-.8 5.8-.2 9.8-3.8 9.8-9.7 0-2-.5-7.1-6.1-11 2.9-4.7-1.5-7.6-4.1-8.7-.3 3.4-1.8 5.3-4.3 6.5.1-1.9-2.5-5.5-5.6-6.8-.3 2.6-2.2 5.8-4.3 6.8 0-1.2-1.9-4.6-5.3-6.1-.1 2.6-2 5.7-4 6.9 0-2.1-2.6-5.1-5.6-6.4-1.1 3.1-4 7-8.9 7-5.8 0-10.3-4.5-10.3-10.3 0-2.3.8-4.5 2.2-6.3-.2-.2-.9-1-1.1-1.2l2.2-.9c3.7 4.3 9.5 5 15.1 2z" style="fill:#fff"/>
 <path d="m112.7 83.4c-1.6-1.3-4.4-5-5.6-8.9-1.1 0-3.2.4-4.4 1-1.2 1.1-3.3 5.5-3.3 5.5s-3.4.5-4.6 6.1l1.5-.5c-1.1 4.2.2 7.6 1.5 9.8-1.9.5-4 1.7-5.2 2.8-.9-.2-1-2.4-2.4-3.7-.9-.8-2.3-1.4-3.7-.1l-3.4-.1 2.4 1.4c-.1.2-.3.5-.4.8.9.4 2.6 1.2 2.9 1.5l-.5 1c-3.8-2-7.2-1.1-7.4 1.5v.6l-2.7 2.8 3.1-.9c.4.6 1 1 2.2 1.1-3.1 2.7-.7 6.2 1.7 6.6l1.7 3.5v-3.5c2.5-.4 3.1-2.5 3.7-3.5.5.4 1.2.7 1.9.8l1.2 3.1.9-3.2c.2-.1.5-.2.7-.4 2.1-1.4 1.1-3.6 1.1-3.6s3.2.4 4.6-1.7c2.2.5 4.3.4 6.7-.3 0-.1-1.7-2.1-1.7-2.1s3.4.2 4.8-1.1c-.6-1.6-.7-2.5-.7-3.8h.5c1.4 0 2.9-.7 3-2.6 0-1.3-1.1-2.5-2.5-2.5h-1.1c-.5-2.7 1-5.9 3.5-7.4z" style="fill:#fff"/>
 <path d="m44.7 71.9c-1.1-3-1.1-7.5 0-11h-4c.2-4.2-6.8-4.6-7-6.3 1.4-2.3 3.1-1.3 4.9-3.1 1.3-1.2 1.3-2.9.2-4.1l1.2-2.8-5.6 3.9-.7-.4c.6-1.1 3.5-3.1 2.4-5.2-.3-.6-.8-1.1-1.5-1.4l-1.7-3.5-.6 3.4c-.7.2-1.3.7-1.9 1.6 1.2.6 1.6 3 1.2 4.4-.2.9-1.3 1.7-1.4 2.3.1.1.7.2.7.2 0 .8-.5 1.4-1.3 1.1-.8-.2-.9-1.6-.3-2.6s1.4-2.7.2-4.3c-.8-1-2.3-1.3-3.5-.4l-2.6-1.6 1.3 3.8c-.9 3.1.4 5.1.4 5.1-.4.2-1 .5-1.5 1l-3.9-1.5 2.7 3.7c0 .3 0 .7.1 1.1.5 2 2.8 2.5 3.5 2.6-.8 1.9.4 4.8 2.5 4.8 0 1.9.6 4.7 2.9 7l.6-3c.6.5 2.9 4.4 3.5 4.9l.7-2.7s2.6 4.5 8.5 3z" style="fill:#fff"/>
 <path d="m52 29.7c-.4-1 .3-1.7.5-1.8.6-.4 1.3-.3 1.9.2.5.6.5 1.4 0 2-.9 1-3.3 1.6-4.6 1.5.4 4 3.9 4.5 5.2 4.5 2.7-.2 5-1.2 6.7-2.3.8-.5 1.7-1.1 2.6-1.5 1.3-.6 3.2-.2 2.8 1.7l-.7 3.6c-.6 2.8-1.7 2.5-3.8 3-3.4.7-11.4 1.4-9.7 7.5.9-.3 3.1-1.1 4.4-2.1l3 1.3c2.5-4.3 7.8-1.5 10-7.3l1.5.3c-.5 9.8-17.9 9-23.5 17.7-3.3 5.2-2.8 15.3 2.8 21-.3 0-.6.1-.9.2-1.2.4-2.7 1.5-2.7 3.2 0 1.8 1.4 3.2 3.2 3.2 1.1 0 2.1-.6 2.7-1.5 0-1.5 1.4-3.3 3.7-3.6-1.1-3.4-8.3-8.3-5.1-17.1l1.2.5c-1.7 8.1 7 13.5 6.2 18.6-.2.9-.6 1.2-1.3 1.2-.5 0-.6-.5-.2-.8l-.2-.8c-.9.2-1.4.8-1.7 1.1-.4.6-.5 1.4-.4 2 .2.6.6 1.1 1.3 1.5 1 .5 2.2.5 3.4.1 2.2-.8 4.2-3 3.9-5.7 0 0-.3-2.1.1-3-4.7-3.9-8.8-11.7-5.3-20l1.3.5c-2 5.7.9 15.5 8 19.8.5.3.7 1.3.2 1.8-.4.3-.9.4-.8-.3 0 0-.9-.4-1.2-.6-.2.9.1 2 .6 2.5s1.2.7 2 .7c2.1 0 4-2 4.5-4.7 1.2-6.1-10.6-11.1-6.3-22l1.6.3c-2.7 11.6 7.4 11.8 7.4 21 2.8-.2 4.7-3.1 3.8-6.6-1.2-4.7-7.9-6.2-5.4-13.5l1.6.3c-.9 2.1-.7 4.8 1.4 6.5 1.7 1.4 3.7 1.4 5.4.4 1.9-1.1 2.2-3.5 1.4-5.6-4.2-.2-5-3.9-5.3-7.7-.1-2.4.2-5.1-1.4-7.1 3.9-1.4 3-5.3 2-6.6 2.3-1.5.7-4.6-.3-5.4 1.2-.9 2.6-2 2.7-5.7-1.2 0-2.3.3-3.6-.2.9-1.1.8-2.4.6-3.1s-.7-2.2-3-2.3-3.2 1.2-3.3 2.7c0 0-2.7-.5-4.6-.9-3.1-.8-7.6-1.8-9.2-.2l-2.8 3s-4.1-.3-7.7 1.4c-.5 1.6-.1 4.3 3.4 3.2zm8.2-4.3.5.6c.1-.1.2-.1.4-.2.7-.5 1.8-1.2 3.7-1.2 1.8 0 3.5 1.2 3.8 1.3l-1.1 1.4c-.2-.1-.5-.1-.7-.2-.1.4-.2.8-.6 1.2s-1 .7-1.6.7c-.5 0-1-.2-1.4-.6-.3-.3-.5-.7-.6-1.2-.1.1-.3.2-.4.3-.2.2-.5.3-.7.4s-.4.2-.6.2c-.4 0-.9-.2-1.1-.6-.3-.7-.4-1.6.4-2.1z" style="fill:#fff"/>
 <path d="m224.6 119.9c-.5 2.6 2.1 4.5 4.4 4.5 2.5 0 7.2-1.1 10.3-8.6 1.6-3.9 1.7-8.4-.3-11.1-1.8-2.2-5.5-3.5-7.3-1.4 3.5.7 4.1 6.2 2.4 10.4-1.8 4.2-5.3 7.3-9.5 6.2z" style="fill:#fff"/>
 <path d="m230.1 104.3c-16.3-9.6-33.9-33.1-29.1-66.5-1.7.5-4.3.6-5.9.5-5.2 28.4-1.7 59.3 28.8 79.4 6.4 1.8 11.3-9 6.2-13.4z" style="fill:#fff"/>
 <path d="m265.5 22.1c-.5 0-1-.1-1.6-.1-4.3 0-9.4 1.6-14.8 3.3-6.3 2-13.6 4.2-20.9 4.2-6.5 0-12.2-1.8-17.3-5.5-.4-.3-.9-.6-1.4-1-4.3-2.9-7.1-4.9-12-4.9-5.2 0-9.4 4-9.4 9 0 4.8 4 7.8 8.7 7.8 3.7 0 5.9-2 6.1-4.7.1-1.8-.3-3.6-3.3-4.4l.7-2.6c4.7.8 7.8 5.8 4.9 10.7 3.7 3.6 12.8 6.5 19.8 6.5 8.3 0 15.8-3 22.4-5.5 5.4-2.1 10.1-3.9 14.4-3.9.7 0 1.3 0 1.9.1l-1 2.7 10.2 3.6 1.1-3c.4-1 .6-2.1.6-3.2.1-4.8-3.7-8.6-9.1-9.1z" style="fill:#fff"/>
 <path d="m240.7 135.9.4-2.3-18.8-6.9-1 2.1c-.2-.1-.4-.1-.6-.1-1.1 0-2 .7-2.4 1.7-.4 1.2.1 2.6 1.3 3.1l-.6 2.6 18.8 6.9 1.2-2.3c.2.1.4.1.5.1 1.1 0 2-.7 2.4-1.7.5-1.3 0-2.6-1.2-3.2z" style="fill:#fff"/>
 <polygon points="259.1 38.6 257.6 42 272 47.1 273 43.6 272.1 43.3 273 40.5 261 36.3 260 38.9" style="fill:#fff"/>
 <path d="m242.1 102.7-1.6-2.8 21.1-53.8-3.5-1.3-1.2 2.9-5.9-10.1c-.7.3-1.4.5-2.1.9-.1 0-.2 0-.3.1l7.1 12.1-2.4 5.8-9.4-16c-.8.3-1.6.6-2.5.9l10.6 18.1-2.5 5.7-13.2-22.4c-.9.2-1.7.4-2.6.6l14.4 24.6c-.1.2-2.4 5.7-2.5 5.8l-17.5-29.8c-.9.1-1.8.1-2.8.1l19.1 32.5c-.5 1.2-2.5 5.8-2.5 5.8l-22.8-38.8c-1.1-.2-2.3-.4-3.4-.7l25 42.4s-2 4.6-2.5 5.8l-29.9-50.8c-1.8-.8-3.3-1.7-4.6-2.7l33.3 56.5s-2.3 5.4-2.7 6.4c6-.9 11.1 6.9 7.3 16-2.9 7.1-7.3 9.7-10.5 10.1l9.5 3.4 28.3-81.3-4.9-1.8z" style="fill:#fff"/>
 <path d="m161.1 308.5v-4.8h3.6c-.4-.9-1-1.8-1.6-2.6h-2.1v-2.1c-.8-.6-1.7-1.2-2.6-1.6v3.7h-4.8v-3.7h-2.6v3.7h-4.8v-3.6c-.9.5-1.8 1.1-2.6 1.8v1.8h-1.7c-.6.8-1.1 1.6-1.6 2.6h3.3v4.8h-4.5c0 .3-.1.6-.1.9v1.7h4.6v4.6h2.6v-4.6h4.8v4.6h2.6v-4.6h4.8v4.6h2.6v-4.6h5v-1.7-.9zm-10 0h-4.8v-4.8h4.8zm7.4 0h-4.8v-4.8h4.8z" style="fill:#fff"/>
 <path d="m65.1 239.7c.2 0 .5-.1.7-.2l2.7-.6 3.1 7.7c.8-.1 1.6-.1 2.4-.2v-8.2h13.6v8.2c.9 0 1.7.1 2.5.2l2.9-7.6 2.6.4.9.1c-.9-7.9-7.6-14-15.7-14-8.2.1-14.9 6.3-15.7 14.2z" style="fill:#fff"/>
 <path d="m205.6 273.2c.2-1.7 1.2-3.2 2.5-4.1l.2-9.1h-7.1v11.2h-13.9v-11.2h-13.9v11.2h-13.9v-11.2h-13.9v11.2h-13.9v-11.2h-13.9v11.2h-13.9v-11.2h-7.1l.2 9.1c1.3.9 2.3 2.4 2.5 4.1.1 1.7-.6 3.3-2 4.3l.1 1.7h109.9l.1-1.7c-1.3-1-2.1-2.6-2-4.3z" style="fill:#fff"/>
 <path d="m145.4 285.9-.3-3.5h-47.3l2.4 49.9h27.8v-23c0-11 7.4-20.4 17.4-23.4zm-27.7 12.3v10.1h-7.8v-16.5c0-1.6 2.2-3.6 3.2-4.4l.7-.6.7.6c1 .8 3.2 2.7 3.2 4.4z" style="fill:#fff"/>
 <path d="m130.7 309.4v3.1h5.5v-3c0-.9.1-1.8.3-2.7l-5.4-1.5c-.2 1.4-.4 2.8-.4 4.1z" style="fill:#fff"/>
 <rect x="130.7" y="325.6" width="5.5" height="6.8" style="fill:#fff"/>
 <rect x="130.7" y="315.7" width="5.5" height="6.7" style="fill:#fff"/>
 <path d="m168.7 306.8c.1.9.2 1.8.2 2.7v3h5.5v-3.1c0-1.4-.1-2.7-.4-4.1z" style="fill:#fff"/>
 <path d="m136.1 295.1c-1.8 2.1-3.3 4.5-4.2 7.1l5.4 1.5c.6-1.7 1.5-3.2 2.7-4.6z" style="fill:#fff"/>
 <rect x="169" y="325.6" width="5.5" height="6.8" style="fill:#fff"/>
 <path d="m169.1 295.1-4 4c1.2 1.4 2.1 3 2.7 4.6l5.4-1.5c-.8-2.5-2.2-5-4.1-7.1z" style="fill:#fff"/>
 <rect x="169" y="315.7" width="5.5" height="6.7" style="fill:#fff"/>
 <polygon points="149.1 295.3 156.1 295.3 156.9 282.4 148.3 282.4" style="fill:#fff"/>
 <path d="m146 294.6-.4-5.8c-2.6.9-5.1 2.3-7.2 4.2l3.9 4c1.1-1.1 2.3-1.8 3.7-2.4z" style="fill:#fff"/>
 <path d="m166.9 292.9c-2.1-1.8-4.6-3.3-7.3-4.2l-.4 5.8c1.4.6 2.6 1.4 3.7 2.3z" style="fill:#fff"/>
 <path d="m67.7 271.2c-3.3.6-3.3 4.3-.4 4.1 6.5-1 20.4-1.2 26.9 0 3 .3 3.1-3.5-.4-4.1l-.3-12.6 7.2-14.8c-1.5-.4-2.7-.5-4.4-.8-.4-.1-.8-.1-1.3-.2l-2.9 7.4-.9-.1c-1.9-.2-3.9-.4-5.9-.5h-1.1v-8h-7v8.1h-1.2c-2.1.1-4 .3-5.9.5l-.9.1-2.9-7.4c-1.8.4-3.9.9-5.3 1.4l6.7 14.4zm2.1-10.5.1-2.4h.2s.5-.1.7-.1c3.2-.5 6.9-.8 10.5-.8 2.4 0 4.7.1 6.8.3l-.2 2.6c-2.1-.2-4.4-.3-6.7-.3-1.3 0-2.7.1-4.2.1l-.2 9-2.6.2.2-9c-1.3.1-2.4.2-3.4.4-.3 0-.6.1-.9.1l-.5.1z" style="fill:#fff"/>
 <path d="m88.3 277.3.2 8.9c1.6 0 3.1.1 4.3.2l.1 2.6c-2.7-.2-6.6-.3-12-.3h-5l-.5 14.6c1.7 0 3.6.1 5.5.1 5.5 0 9.8-.2 12.7-.4l.1 2.6c-1.3.1-2.8.2-4.7.3l.4 14.5c2.3-.3 3.8-.7 4.9-1l.1 2.7c-3.4.9-8.1 1.4-13.6 1.4-2.2 0-4.4-.1-6.5-.2l-.4 14.3c-1-.1-1.8-.2-2.6-.3l.4-14.2c-2.1-.2-3.9-.6-5.4-1l.2-2.7h.1c3.2 1 8.4 1.6 14.2 1.6 2.1 0 4.1-.1 6-.2l-.4-14.7c-1.7 0-3.6.1-5.6.1-5.8 0-10.3-.2-13.4-.5l.2-2.6c1.4.2 3.1.2 5.2.3l.5-14.4c-1.9.1-3.6.1-5 .3l.1-2.6c2.9-.2 6.8-.3 12.4-.3h5l-.2-9c-6.7-.2-14.6.2-18.6.9l-3.3 58.3c.5 1 5.8 3.3 16.9 3.3 11.6 0 16.1-2.4 16.4-3.2l-2.7-58.7c-1.5-.3-3.6-.5-6-.7z" style="fill:#fff"/>
 <path d="m212.3 239.1 2.9 7.6c.8-.1 1.6-.1 2.5-.2v-8.2h13.6v8.2c.9 0 1.7.1 2.5.2l3.1-7.7 2.7.6c.2.1.5.1.7.2-.8-8-7.5-14.1-15.6-14.1s-14.8 6.2-15.7 14l.9-.1z" style="fill:#fff"/>
 <path d="m235.8 250.2-.9-.1c-1.8-.2-3.8-.3-5.8-.5h-1.2v-8.1h-7v8h-1.1c-2 .1-4 .3-5.9.5l-.9.1-2.9-7.4c-.4.1-.9.1-1.3.2-1.7.2-2.9.4-4.4.8l7.2 14.8-.3 12.6c-3.4.6-3.4 4.4-.4 4.1 6.4-1.2 20.4-1 26.9 0 2.9.2 2.9-3.5-.4-4.1l-.3-12.6 6.7-14.4c-1.4-.5-3.5-1-5.3-1.4zm-.9 10.7c-.3 0-.6-.1-.9-.1-1-.2-2.1-.3-3.4-.4l.2 9-2.6-.2-.2-9c-1.5-.1-2.8-.1-4.1-.1-2.3 0-4.6.1-6.7.3l-.2-2.6c2.2-.2 4.5-.3 6.9-.3 3.6 0 7.2.3 10.5.8.2 0 .7.1.7.1h.2l.1 2.4v.2z" style="fill:#fff"/>
 <path d="m219.5 277.2-.3 9h5c5.5 0 9.5.1 12.4.3l.1 2.6c-1.4-.1-3-.2-5-.3l.5 14.4c2.1-.1 3.8-.2 5.2-.3l.1 2.6c-3.1.3-7.6.5-13.5.5-2 0-3.9 0-5.6-.1l-.4 14.7c1.9.1 3.8.2 5.9.2 5.9 0 11-.6 14.2-1.6h.1l.2 2.7c-1.5.4-3.3.8-5.4 1l.4 14.2c-.8.1-1.6.2-2.6.3l-.4-14.3c-2.1.2-4.3.2-6.5.2-5.4 0-10.2-.5-13.5-1.4l.1-2.7c1 .3 2.6.7 4.9 1l.4-14.5c-1.8-.1-3.3-.2-4.6-.3l.1-2.6c2.9.3 7.2.4 12.7.4 2 0 3.8 0 5.5-.1l-.5-14.6h-5c-5.3 0-9.2.1-12 .3l.1-2.6c1.2-.1 2.7-.2 4.3-.2l.2-8.9c-2.4.2-4.5.4-6 .7l-2.8 58.4c.3.8 4.9 3.2 16.4 3.2 11.1 0 16.4-2.3 16.9-3.3l-3.3-58.3c-3.7-.4-11.7-.8-18.3-.6z" style="fill:#fff"/>
 <path d="m159.8 285.9c10 3.1 17.3 12.5 17.3 23.5v22.9h27.9l2.4-50h-47.3zm27.6 12.3v-6.4c0-1.6 2.2-3.6 3.2-4.4l.7-.6.7.6c1 .8 3.2 2.7 3.2 4.4v16.5h-7.8z" style="fill:#fff"/>
 <path d="m79.4 223.2h2.6v-51.9c1.6-.6 2.7-2 2.7-3.8 0-2.2-1.8-4-4-4s-4 1.8-4 4c0 1.8 1.1 3.2 2.7 3.8v.9h-27.9v30.6h27.9zm-.4-55.7c0-.9.8-1.7 1.7-1.7s1.7.8 1.7 1.7-.8 1.7-1.7 1.7-1.7-.8-1.7-1.7zm-9.2 23v9.7h-6v-9.7h-9.7v-6h9.7v-9.7h6v9.7h9.6v6z" style="fill:#fff"/>
 <path d="m225.8 172.2v-.9c1.6-.5 2.8-2 2.8-3.8 0-2.2-1.8-4-4-4s-4 1.8-4 4c0 1.8 1.2 3.2 2.8 3.8v51.9h2.5v-20.3h27.9v-30.6h-28zm-1.3-3c-1 0-1.7-.7-1.7-1.7 0-.9.8-1.7 1.7-1.7s1.7.8 1.7 1.7-.8 1.7-1.7 1.7zm26.6 9.9-8.5 8.5 8.5 8.4v4.2h-4.2l-8.4-8.5-8.5 8.5h-4.2v-4.2l8.4-8.4-8.4-8.4v-4.3h4.1l8.5 8.6 8.5-8.6h4.2z" style="fill:#fff"/>
 <path d="m122.8 222.1v-85h57.7c4.4 0 8.7.6 10.1 5.1.8 2.2.5 4.5-.8 6.2-1.1 1.5-2.8 2.4-4.9 2.4h-49.6v5.5c.6-.1 1.3-.2 2-.2.4 0 .8 0 1.2.1v-2.2h.9 47.2c2.8 0 5.2-1.3 6.7-3.7l.1-.2.2-.2.2-.3c1.2-1.9 1.5-5.3.7-7.8-1.6-5-5.9-7.9-11.8-7.9h-63.2v91h7.9c-2.1-1.6-3.8-2.3-3.8-2.3z" style="fill:#fff"/>
 <path d="m135.4 188.7v7.1c.6-.2 1.3-.3 2-.3.4 0 .8 0 1.2.1v-6.8c-.4.1-.8.1-1.2.1-.7.1-1.4 0-2-.2z" style="fill:#fff"/>
 <path d="m110.4 201.4.1-.8c.2-3.3-.8-5.9-2.5-6.3-.3 0-.5-.1-.7-.1-.5 0-1.6 0-1.8 2.3l-.2 2-1.6-1.1c-.3-.2-.6-.3-.9-.3-.8 0-1.5.9-1.8 2.3-.5 2.1.2 5.1 3.6 6.7l.7.3v.8c-.1 2.4.8 4.1 2.4 4.5 1.4.3 2-1.2 2.1-2l.1-1.6 1.5.6c.6.2 2 .7 3.7.7.7 0 1.3-.1 2-.2v-6.7c-1.9.2-4.2-.1-5.9-.8z" style="fill:#fff"/>
 <path d="m110.4 149.3.1-.8c.2-3.3-.8-5.9-2.5-6.3-.3-.1-.5-.1-.7-.1-.5 0-1.6 0-1.8 2.3l-.2 1.9-1.6-1.1c-.3-.2-.6-.3-.9-.3-.8 0-1.5 1-1.8 2.3-.5 2.1.2 5.1 3.6 6.7l.7.3v.8c-.1 2.4.8 4.1 2.4 4.5 1.4.3 2-1.2 2.1-2l.1-1.6 1.5.6c.6.2 2 .7 3.7.7.7 0 1.3-.1 2-.2v-6.7c-1.9.2-4.2-.1-5.9-.8z" style="fill:#fff"/>
 <path d="m186.8 230.9h-48.3v-2.5c-.4.1-.8.1-1.2.1-.7 0-1.3-.1-2-.3v5.8h51.3c2.9 0 6.6-1.1 7.8-3.2.5-.9.5-1.9-.1-3.1-1.4 2.1-4.5 3.2-7.5 3.2z" style="fill:#fff"/>
 <path d="m135.4 210.7v2.6c.6-.2 1.3-.3 2-.3.4 0 .8 0 1.2.1v-2.2c-.4.1-.8.1-1.2.1-.7 0-1.4-.1-2-.3z" style="fill:#fff"/>
 <path d="m126.1 141.2v78.8c1 .5 2.3 1.3 3.7 2.4-.1-.5-.2-1.1-.2-1.7 0-2.3 1-4.3 2.5-5.7v-6.1c-1.5-1.4-2.5-3.4-2.5-5.7s1-4.3 2.5-5.7v-10.5c-1.5-1.4-2.5-3.4-2.5-5.7s1-4.3 2.5-5.7v-6.1c-1.5-1.4-2.5-3.4-2.5-5.7 0-2.2 1-4.3 2.5-5.7v-10.6h1.3c-2.2-3.1-5.1-5.2-7.3-6.3z" style="fill:#fff"/>
 <path d="m185 147.5c1 0 1.8-.4 2.2-1 .6-.8.7-2 .3-3.3-.6-1.8-1.9-2.8-7-2.8h-49.1c2.1 1.7 4.4 4 6.1 7.1z" style="fill:#fff"/>
 <path d="m188.9 228.5c1.5-.3 4-1.1 4.2-3.6v-71.4c-1.2 1.1-2.7 1.8-4.2 2.2z" style="fill:#fff"/>
 <path d="m137.3 171.5c-.7 0-1.3-.1-2-.2v2.5c.6-.2 1.3-.3 2-.3.4 0 .8.1 1.2.1v-2.2c-.4 0-.8.1-1.2.1z" style="fill:#fff"/>
 <path d="m144 177.4c1.2-1.4 1.8-3.1 1.8-4.9s-.6-3.5-1.8-4.9c-.8 1.4-2 2.4-3.3 3.1v3.6c1.3.7 2.5 1.7 3.3 3.1z" style="fill:#fff"/>
 <path d="m144 216.9c1.2-1.4 1.8-3.1 1.8-4.9s-.6-3.5-1.8-4.9c-.8 1.3-2 2.4-3.4 3.1v3.6c1.4.7 2.6 1.7 3.4 3.1z" style="fill:#fff"/>
 <path d="m141.3 181.2c0-2.2-1.7-4-3.9-4s-4 1.8-4 4 1.7 4 4 4c2.1 0 3.9-1.8 3.9-4z" style="fill:#fff"/>
 <path d="m141.3 203.3c0-2.2-1.7-3.9-3.9-3.9s-4 1.7-4 3.9 1.8 3.9 4 3.9c2.1 0 3.9-1.8 3.9-3.9z" style="fill:#fff"/>
 <path d="m137.3 159.8c-2.2 0-4 1.8-4 4s1.8 4 4 4 3.9-1.8 3.9-4c.1-2.2-1.7-4-3.9-4z" style="fill:#fff"/>
 <path d="m141.3 220.8c0-2.2-1.7-4-3.9-4s-4 1.8-4 4 1.8 3.9 4 3.9c2.1 0 3.9-1.8 3.9-3.9z" style="fill:#fff"/>
 <polygon points="179.4 191.3 186.3 184.6 186.2 174.5 180.4 168.6 168.5 180.2" style="fill:#fff"/>
 <polygon points="186.2 171 186.2 163 182.2 166.9" style="fill:#fff"/>
 <path d="m140.6 228.7h22.8l-9.3-9.5-3.6 3.6-1.8-1.8 3.7-3.6-1.6-1.6 1.8-1.7 1.6 1.6 9.7-9.4-10.8-11.1-5 5-1.7-1.8 5-5-5.1-5.1 1.8-1.7 5.1 5.1 11.9-11.5-11.1-11.2-1.5 1.4-1.7-1.8 1.4-1.3-4.5-4.5 1.8-1.7 4.5 4.6 10.2-9.5h-23.7v.8c2.6 1.2 4.4 3.9 4.4 7v.3c2.6 2.1 4 5.2 4 8.4 0 3.3-1.5 6.4-4 8.5v.3c0 3-1.8 5.7-4.4 7v8.1c2.6 1.3 4.4 3.9 4.4 7v.3c2.6 2.1 4 5.1 4 8.5 0 3.3-1.5 6.4-4 8.5v.3c0 3-1.8 5.7-4.4 7v.5z" style="fill:#fff"/>
 <polygon points="186.2 159.6 186.2 156 171.4 156 180.5 165.2" style="fill:#fff"/>
 <polygon points="186.3 198.4 186.3 188.1 181.1 193.1" style="fill:#fff"/>
 <polygon points="179.3 194.8 167.4 206.3 178.4 217.5 186.3 209.8 186.3 201.9" style="fill:#fff"/>
 <polygon points="186.3 225.6 186.3 213.3 180.1 219.3" style="fill:#fff"/>
 <polygon points="178.7 166.9 167.9 156 155.9 167.3 166.8 178.5" style="fill:#fff"/>
 <polygon points="177.6 193.1 166.7 181.9 154.8 193.5 165.7 204.6" style="fill:#fff"/>
 <polygon points="155.9 217.5 166.8 228.7 176.6 219.2 165.7 208.1" style="fill:#fff"/>
 <polygon points="185.9 228.7 178.3 221 170.4 228.7" style="fill:#fff"/>
</svg>
