<svg version="1.1" viewBox="0 0 133.3 53.37" xmlns="http://www.w3.org/2000/svg">
 <g transform="matrix(1.333 0 0 -1.333 0 53.37)">
  <g transform="scale(.1)">
   <path d="m511.6 400.1c35.76 1.231 71.76-4.148 105.5-16.12 50.74-17.81 96.09-50.46 129.3-92.74 14.6-18.55 26.82-38.94 36.41-60.52 1.699-3.59 3.008-7.625 2.098-11.62-1.114-6.715-7-12.27-13.77-12.94-7.031-1.028-14.3 3.359-16.8 9.984-19.06 44.84-51.58 83.79-92.14 110.8-25.08 16.76-53.2 28.96-82.59 35.79-37.89 8.863-77.78 8.863-115.7 0.027-54.11-12.46-103.7-43.5-138.6-86.63-14.82-18.17-27.05-38.43-36.27-59.98-1.996-5.008-6.582-8.934-11.93-9.813-5.16-0.996-10.78 0.786-14.38 4.629-4.242 4.25-5.629 11.04-3.442 16.62 25.38 60.01 72.38 110.4 130.2 140.4 37.64 19.7 79.74 30.69 122.2 32.12" fill="#f49813"/>
   <g fill="#3069b5">
    <path d="m464.4 215.3c-0.214 3.117 2.735 5.449 5.657 5.523 3.797 0.102 7.605 0.07 11.41 0.016 2.644-0.09 5.73-1.852 5.719-4.821 0.136-34.87-0.082-69.75 0.117-104.6 14.13 15.71 28.38 31.34 42.56 47 2.793 2.754 5 6.926 9.344 7.285 5.852 0.242 11.72 0.098 17.58 0.09 2.258 0.203 4.778-1.867 3.985-4.277-0.926-1.86-2.625-3.137-4.012-4.614-15.33-15.32-30.72-30.59-45.98-45.97 14.74-16.82 29.27-33.81 43.93-50.7 1.887-2.402 4.25-4.441 5.832-7.09 1.16-2.07-0.762-4.59-2.981-4.688-4.871-0.2735-9.753 0-14.64-0.1172-2.539 0.0586-5.285-0.3125-7.59 0.9961-2.43 1.394-3.906 3.887-5.645 5.984-14.15 17.82-28.2 35.7-42.4 53.49-0.145-17.54-0.043-35.07-0.055-52.6-0.054-2.024 0.36-4.461-1.402-5.938-2.805-2.707-6.98-1.758-10.48-1.934-3.106 0.1055-6.739-0.5742-9.262 1.719-1.406 1.094-1.774 2.961-1.719 4.621 0.039 53.56-0.016 107.1 0.027 160.7"/>
    <path d="m399.9 166c7.094 2.281 15.09 2.715 22.04-0.293 2.438-1.145 5.27-3.586 4.168-6.594-1.113-3.777-2.062-7.597-3.39-11.31-0.981-2.664-4.071-3.653-6.672-3.133-5.852 1.004-11.6 2.937-17.6 2.742-4.187 0.098-8.051-2.148-10.91-5.059-4.621-4.519-7.012-10.84-8.086-17.11-0.852-4.531-0.609-9.16-0.648-13.74 0-19.24 7e-3 -38.49-4e-3 -57.73 0.273-3.164-3-5.312-5.856-5.422-3.922-0.0547-7.836-0.1055-11.75 0.0312-2.832 0.1484-6.019 2.215-5.652 5.402-0.016 35.62-0.039 71.24 8e-3 106.9-0.242 3.543 3.683 5.469 6.762 5.137 3.863-0.254 9.136 1.199 11.65-2.688 1.906-4.507 2.812-9.375 4.602-13.92 5.386 7.391 12.53 13.91 21.35 16.82"/>
    <path d="m0 163.3c1.09 1.25 2.363 2.602 4.18 2.473 5.32 0.051 10.66 0.168 15.97-0.078 2.699-0.078 4.559-2.45 4.953-4.961 5.23-21.27 10.37-42.57 15.57-63.85 1.527-6.57 3.387-13.07 4.383-19.76 1.027-6.004 1.23-12.1 2.207-18.11 1.344 8.586 2.547 17.23 4.863 25.61 6.809 25.39 13.61 50.78 20.43 76.17 0.5313 2.895 3.254 4.953 6.148 4.953 5.922 0.149 11.86 0.047 17.78 0.047 3.176 0.149 6.575-1.707 7.34-4.961 5.086-18.51 10.11-37.06 15.18-55.59 3.074-12 7.101-23.8 8.84-36.11 0.48-3.391 0.949-6.789 1.648-10.16 1.91 19.34 6.887 38.16 10.98 57.11 3.379 15.07 6.683 30.16 10.1 45.23 0.504 3.027 3.707 4.55 6.528 4.465 4.789 0.027 9.586 0.164 14.37-0.079 2.84-0.082 4.472-3.222 3.472-5.754-9.609-35.46-19.18-70.94-28.8-106.4-0.516-2.844-2.993-5.062-5.895-5.109-7.422-0.2422-14.86-0.0586-22.28-0.0977-2.66-0.1641-5.473 1.262-5.942 4.062-6.644 24.38-13.16 48.81-19.74 73.21-2.383 8.489-3.348 17.29-4.348 26.02-1.223-7.774-1.828-15.68-3.898-23.31-6.738-25.12-13.52-50.26-20.27-75.39-0.7617-4.07-5.414-4.883-8.875-4.617-6.902 0.125-13.8-0.1602-20.7 0.125-2.457-0.0078-4.352 1.906-4.793 4.226-9.688 35.32-19.34 70.65-29.04 106-0.3359 1.543-0.293 3.117-0.3672 4.668"/>
    <path d="m870.5 165.7c5.039 0.086 10.1 0.106 15.14 0 3.066-0.043 5.949-2.14 6.914-5.07 8.703-22.74 17.34-45.53 26.04-68.28 1.816-4.617 3.086-9.434 3.899-14.32 3.593 13.5 8.378 26.63 12.58 39.95 4.675 14.4 9.355 28.81 14.05 43.22 0.696 2.507 3.086 4.218 5.625 4.429 4.114 0.305 8.254 0.039 12.38 0.149 2.411-0.028 5.282 0.254 7.118-1.68 1.191-1.008 0.937-2.683 0.441-3.992-13.91-39.67-27.77-79.36-41.66-119-2.414-6.609-4.27-13.53-8.156-19.47-5.575-9.055-14.61-15.57-24.54-19.1-3.469-1.074-7.051-3.457-10.78-2.121-2.648 0.6758-3.664 3.43-5.078 5.453-1.015 1.836-2.89 3.535-2.5 5.82 0.184 2.266 2 4.109 4.141 4.715 4.187 1.445 8.445 3.039 11.84 5.996 8.242 6.973 13.34 17.29 15.28 27.78-1.316 4.66-3.75 8.945-5.516 13.46-13.26 30.82-26.52 61.65-39.82 92.46-0.801 2.016-1.981 3.938-2.207 6.125 0.031 2.402 2.785 3.457 4.824 3.527"/>
    <path d="m252.1 150.8c-7.234-1.344-13.83-5.848-17.5-12.26-6.136-10.4-6.843-22.95-6.566-34.75 0.437-10.68 2.152-22.07 8.965-30.7 5.082-6.492 13.43-9.754 21.55-9.629 7.808-0.25 15.99 2.394 21.28 8.332 6.761 7.394 8.933 17.66 9.863 27.33 0.41 9.504 0.602 19.18-1.863 28.46-1.961 7.84-6.102 15.68-13.27 19.9-6.668 4.09-14.91 4.472-22.46 3.316zm3.055 16.91c13.09 0.805 26.8-1.914 37.61-9.668 9.664-6.875 16.23-17.47 19.29-28.83 3.645-13.56 3.629-28.04 0.324-41.67-3.113-12.57-10.39-24.41-21.38-31.55-11.74-7.789-26.48-9.812-40.26-8.152-11.74 1.445-23.18 6.594-31.35 15.24-9.605 10.06-14.38 23.93-15.37 37.63-1.207 15.2 1.121 31.28 9.574 44.26 6.254 9.766 16.2 16.94 27.28 20.22 4.625 1.445 9.45 2.117 14.27 2.527"/>
    <path d="m641.3 151.4c-7.176-0.461-14.1-4.59-17.3-11.14-6.258-12.11-6.386-26.21-6.074-39.53 0.5-8.703 1.445-17.69 5.5-25.55 2.742-5.293 7.723-9.473 13.61-10.75 9.012-2.168 19.62-0.3321 26.02 6.789 6.172 7.027 8.203 16.58 9.152 25.62 0.652 10.31 0.692 20.83-1.867 30.92-1.758 6.746-4.734 13.48-10.08 18.17-5.125 4.511-12.27 6.25-18.96 5.468zm30.88 65.35c-0.164 2.734 2.629 4.48 5.058 4.691 3.887 0.211 7.786 0.11 11.68 0.067 2.969 0.027 6.289-2.18 5.86-5.477 0-53.8 0.011-107.6-8e-3 -161.4 0.203-2.777-2.532-4.934-5.098-5.102-3.098-0.164-6.203-0.164-9.289 0.0508-2.176 0.1367-4.285 1.531-5.027 3.613-1.164 3.496-1.77 7.129-2.657 10.68-4.296-5.828-9.836-10.98-16.72-13.54-9.817-3.613-20.74-3.672-30.83-1.211-10.14 2.438-18.96 9.402-23.86 18.57-7.676 14-8.586 30.46-8.105 46.07 0.273 13.34 2.82 27.41 11.51 38 6.555 8.973 17.3 14.12 28.14 15.47 10.1 1.477 21.05-0.222 29.41-6.34 3.953-2.781 7.117-6.511 9.942-10.41-0.079 22.08-0.059 44.17-0.012 66.26"/>
    <path d="m780.8 150.8c-3.601-0.734-7.09-2.179-10-4.433-5.82-4.531-8.711-11.73-10.25-18.72-2.246-11.09-2.215-22.55-1.054-33.77 1.086-8.242 3.156-17.04 9.199-23.13 4.922-5.168 12.34-7.062 19.29-6.723 7.469-0.2695 15.24 2.512 20.06 8.379 6.023 7.285 7.722 16.98 8.601 26.11 0.559 10.73 0.566 21.73-2.449 32.15-1.906 6.492-5.391 12.95-11.27 16.65-6.476 4.25-14.67 4.641-22.12 3.5zm-10 14.74c10.36 2.871 21.46 3.039 31.93 0.644 9.727-2.254 18.84-7.714 24.81-15.8 6.32-8.289 9.511-18.57 10.84-28.81 1.153-7.898 0.821-15.9 0.832-23.86 0-14.36 0-28.72-0.039-43.08 0.157-1.75-0.949-3.301-2.375-4.211-2.41-1.484-5.398-0.8281-8.086-0.9961-3.015 0.0235-6.98-0.2421-8.621 2.895-1.601 3.688-1.933 7.801-2.961 11.68-4.043-4.914-8.23-9.984-14.08-12.82-8.914-4.406-19.34-4.148-28.88-2.285-11.67 2.305-22.42 9.207-29.02 19.15-7.863 11.58-10.72 25.88-10.61 39.7-0.097 13.47 2.539 27.39 10.03 38.79 5.988 9.316 15.6 16.06 26.23 19"/>
    <path d="m979.6 77.29c-5.926-2.176-9.656-9.012-8.144-15.18 1.543-7.246 9.972-12.19 17-9.512 6.484 1.98 10.57 9.375 8.562 15.89-1.766 7.336-10.47 11.67-17.42 8.801zm0.821 3.098c3.515 0.5547 7.335 0.5938 10.6-1.035 5.555-2.524 9.548-8.488 8.946-14.69 0.462-7.398-5.762-14.01-12.86-15.2-7.996-1.699-16.6 4.094-18.23 12.07-2.102 8.027 3.476 17.06 11.55 18.86"/>
    <path d="m982 71.37c-0.012-1.68-0.02-3.359 0-5.051 1.473 0.0899 2.988 0 4.441 0.4024 1.367 0.5664 1.231 2.305 0.86 3.469-1.414 1.383-3.516 1.023-5.301 1.18zm-4.445 2.734c4.25-0.2422 9.015 0.957 12.84-1.414 3.086-2.316 1.59-7.356-1.894-8.43 1.004-2.656 2.402-5.125 3.679-7.656-1.609-0.0313-3.191-0.0586-4.773-0.086-1.144 2.344-2.266 4.715-3.359 7.078-0.696 0.0195-1.379 0.0273-2.051 0.039-0.012-2.363-0.012-4.726-0.012-7.09-1.504 0.0195-2.976 0.039-4.453 0.0508 0.012 5.84-8e-3 11.68 0.02 17.51"/>
   </g>
  </g>
 </g>
</svg>
